<svg width="41" height="35" viewBox="0 0 41 35" fill="none" xmlns="http://www.w3.org/2000/svg">
<path d="M40.8584 4.0172L37.3913 0.24669C37.3145 0.168517 37.223 0.106475 37.1223 0.0641364C37.0216 0.0217977 36.9136 0 36.8046 0C36.6955 0 36.5875 0.0217977 36.4868 0.0641364C36.3861 0.106475 36.2947 0.168517 36.2178 0.24669L32.7507 4.0172C32.6407 4.1782 32.5922 4.37405 32.6144 4.5684C32.6365 4.76274 32.7277 4.94238 32.871 5.07398C33.0144 5.20557 33.2001 5.28017 33.3938 5.28395C33.5875 5.28772 33.7759 5.2204 33.9242 5.09449L36.2712 2.56286V33.3841H30.9372V6.72119C30.9372 6.50691 30.8529 6.3014 30.7028 6.14987C30.5528 5.99835 30.3493 5.91323 30.1371 5.91323H23.7363C23.5241 5.91323 23.3206 5.99835 23.1705 6.14987C23.0205 6.3014 22.9362 6.50691 22.9362 6.72119V33.3841H20.2692V13.7236C20.2692 13.5093 20.1849 13.3038 20.0348 13.1522C19.8848 13.0007 19.6813 12.9156 19.4691 12.9156H13.0683C12.8561 12.9156 12.6526 13.0007 12.5025 13.1522C12.3525 13.3038 12.2682 13.5093 12.2682 13.7236V33.3841H10.1346V20.1873C10.1346 19.973 10.0503 19.7675 9.90025 19.616C9.7502 19.4644 9.54669 19.3793 9.33449 19.3793H2.9337C2.7215 19.3793 2.51799 19.4644 2.36794 19.616C2.21789 19.7675 2.1336 19.973 2.1336 20.1873V33.3841H0.800099C0.5879 33.3841 0.384391 33.4692 0.234344 33.6207C0.0842958 33.7722 0 33.9777 0 34.192C0 34.4063 0.0842958 34.6118 0.234344 34.7634C0.384391 34.9149 0.5879 35 0.800099 35H37.0713C37.2835 35 37.487 34.9149 37.637 34.7634C37.7871 34.6118 37.8714 34.4063 37.8714 34.192V3.1446L39.6849 5.11603C39.8332 5.24195 40.0216 5.30926 40.2153 5.30549C40.409 5.30172 40.5948 5.22711 40.7381 5.09552C40.8814 4.96393 40.9726 4.78429 40.9948 4.58994C41.0169 4.3956 40.9684 4.19975 40.8584 4.03874V4.0172ZM24.5364 7.52916H29.337V33.3841H24.5364V7.52916ZM13.8684 14.5315H18.669V33.3841H13.8684V14.5315ZM3.7338 20.9953H8.53439V33.3841H3.7338V20.9953Z" fill="#3C7CAF"/>
</svg>
