<svg width="40" height="40" viewBox="0 0 40 40" fill="none" xmlns="http://www.w3.org/2000/svg">
<path d="M34.7499 6.5H38.2499C38.4488 6.5 38.6395 6.42098 38.7802 6.28033C38.9209 6.13968 38.9999 5.94891 38.9999 5.75C38.9999 5.55109 38.9209 5.36032 38.7802 5.21967C38.6395 5.07902 38.4488 5 38.2499 5H33.2499C33.051 5 32.8602 5.07902 32.7196 5.21967C32.5789 5.36032 32.4999 5.55109 32.4999 5.75V10.75C32.4999 10.9489 32.5789 11.1397 32.7196 11.2803C32.8602 11.421 33.051 11.5 33.2499 11.5C33.4488 11.5 33.6396 11.421 33.7802 11.2803C33.9209 11.1397 33.9999 10.9489 33.9999 10.75V7.905C36.918 11.2569 38.5174 15.5558 38.4999 20C38.4999 23.6589 37.4149 27.2357 35.3821 30.278C33.3493 33.3204 30.46 35.6915 27.0796 37.0918C23.6991 38.492 19.9794 38.8583 16.3908 38.1445C12.8021 37.4307 9.50577 35.6687 6.91851 33.0815C4.33125 30.4942 2.5693 27.1978 1.85547 23.6092C1.14165 20.0205 1.50801 16.3008 2.90823 12.9204C4.30844 9.53992 6.67963 6.65062 9.72192 4.61781C12.7642 2.58501 16.341 1.5 19.9999 1.5C20.1989 1.5 20.3896 1.42098 20.5303 1.28033C20.6709 1.13968 20.7499 0.948912 20.7499 0.75C20.7499 0.551087 20.6709 0.360322 20.5303 0.21967C20.3896 0.0790175 20.1989 5.92805e-09 19.9999 0C16.0443 0 12.1775 1.17298 8.88857 3.37061C5.5996 5.56823 3.03616 8.69181 1.52241 12.3463C0.00866565 16.0008 -0.3874 20.0222 0.384302 23.9018C1.156 27.7814 3.06081 31.3451 5.85785 34.1421C8.65489 36.9392 12.2185 38.844 16.0981 39.6157C19.9778 40.3874 23.9991 39.9913 27.6536 38.4776C31.3081 36.9638 34.4316 34.4004 36.6293 31.1114C38.8269 27.8224 39.9999 23.9556 39.9999 20C40.0183 14.9983 38.1426 10.1751 34.7499 6.5Z" fill="#7225FF"/>
<path d="M6.49997 20.25C6.49997 22.9695 7.30639 25.6279 8.81725 27.8891C10.3281 30.1503 12.4756 31.9126 14.988 32.9533C17.5005 33.994 20.2652 34.2663 22.9324 33.7358C25.5996 33.2052 28.0496 31.8957 29.9726 29.9727C31.8956 28.0497 33.2051 25.5997 33.7357 22.9325C34.2662 20.2652 33.9939 17.5006 32.9532 14.9881C31.9125 12.4756 30.1502 10.3282 27.889 8.81729C25.6278 7.30642 22.9694 6.5 20.2499 6.5C16.6044 6.50397 13.1094 7.9539 10.5316 10.5317C7.95387 13.1094 6.50394 16.6045 6.49997 20.25ZM32.4999 20.25C32.4999 22.6728 31.7814 25.0412 30.4354 27.0557C29.0893 29.0702 27.1762 30.6403 24.9378 31.5675C22.6994 32.4947 20.2363 32.7373 17.8601 32.2646C15.4838 31.7919 13.3011 30.6252 11.5879 28.9121C9.87471 27.1989 8.70801 25.0161 8.23534 22.6399C7.76268 20.2636 8.00527 17.8005 8.93244 15.5621C9.85961 13.3237 11.4297 11.4105 13.4442 10.0645C15.4587 8.71845 17.8271 8 20.2499 8C23.4976 8.00397 26.6111 9.29587 28.9076 11.5923C31.204 13.8888 32.4959 17.0023 32.4999 20.25Z" fill="#7225FF"/>
<path d="M19.4999 11.75V20.25C19.5001 20.3982 19.5441 20.5431 19.6265 20.6663C19.709 20.7895 19.8261 20.8856 19.963 20.9423C20.1 20.999 20.2507 21.0138 20.3961 20.985C20.5415 20.9561 20.675 20.8848 20.7799 20.78L27.2799 14.28C27.4124 14.1378 27.4845 13.9498 27.4811 13.7555C27.4777 13.5612 27.3989 13.3758 27.2615 13.2384C27.1241 13.101 26.9387 13.0223 26.7444 13.0188C26.5501 13.0154 26.3621 13.0875 26.2199 13.22L20.9999 18.44V11.75C20.9999 11.5511 20.9209 11.3603 20.7803 11.2197C20.6396 11.079 20.4488 11 20.2499 11C20.051 11 19.8603 11.079 19.7196 11.2197C19.579 11.3603 19.4999 11.5511 19.4999 11.75Z" fill="#7225FF"/>
</svg>
