<svg width="25" height="36" viewBox="0 0 25 36" fill="none" xmlns="http://www.w3.org/2000/svg">
<path d="M21.0049 0H3.99506C1.81219 0 0 1.771 0 3.95387V31.2191C0 33.402 1.77101 35.173 3.99506 35.173H21.0049C23.1878 35.173 25 33.402 25 31.2191V3.95387C25 1.771 23.229 0 21.0049 0ZM23.7644 31.2191C23.7644 32.743 22.5288 33.9374 21.0049 33.9374H3.99506C2.47117 33.9374 1.23558 32.7018 1.23558 31.2191V3.95387C1.23558 2.42998 2.47117 1.23558 3.99506 1.23558H21.0049C22.5288 1.23558 23.7644 2.47117 23.7644 3.95387V31.2191Z" fill="#FD5050"/>
<path d="M17.5453 3.91272H7.37231C7.04282 3.91272 6.75452 4.20102 6.75452 4.53051C6.75452 4.86 7.04282 5.1483 7.37231 5.1483H17.5453C17.8748 5.1483 18.1631 4.86 18.1631 4.53051C18.1631 4.20102 17.8748 3.91272 17.5453 3.91272Z" fill="#FD5050"/>
<path d="M12.4794 27.5123C11.3262 27.5123 10.4201 28.4596 10.4201 29.5716C10.4201 30.1071 10.626 30.6425 11.0379 31.0132C11.4086 31.3838 11.944 31.5898 12.4794 31.5898C13.6326 31.5898 14.5387 30.6425 14.5387 29.5305C14.5387 28.4184 13.6326 27.5123 12.4794 27.5123ZM12.5206 30.3954C12.3147 30.3954 12.1087 30.313 11.944 30.1482C11.7792 29.9835 11.6969 29.7776 11.6969 29.5716C11.6969 29.1186 12.0676 28.7479 12.5206 28.7479C12.9736 28.7479 13.3443 29.1186 13.3443 29.5716C13.3443 30.0247 12.9736 30.3954 12.5206 30.3954Z" fill="#FD5050"/>
</svg>
