<svg width="42" height="42" viewBox="0 0 42 42" fill="none" xmlns="http://www.w3.org/2000/svg">
<path d="M40.15 21.0078C41.266 20.2944 41.9995 19.1131 41.9995 17.7769C41.9995 15.6097 40.0642 13.8471 37.6854 13.8471H26.1904C26.7338 12.8356 27.2841 11.1781 27.1583 8.70989C26.9112 3.65009 23.8194 1.0251 22.0313 0.271574C20.9766 -0.172701 19.8289 -0.0671976 18.9618 0.553722C18.0914 1.17706 17.1089 2.60861 17.3716 5.88986C17.6435 9.29984 13.2724 12.9987 11.1426 14.5881V13.2901C11.1426 12.8889 10.8156 12.5641 10.4115 12.5641H0.731045C0.327021 12.5641 0 12.8889 0 13.2901V39.512C0 39.9127 0.327021 40.2379 0.731045 40.2379H10.4115C10.8156 40.2379 11.1426 39.9127 11.1426 39.512V38.1874C13.8981 39.1713 21.6467 41.8224 25.4759 41.9468L33.1651 42C35.541 42 37.4739 40.1585 37.4739 37.8955C37.4739 36.8536 37.0625 35.904 36.3904 35.1786C38.4413 34.8616 40.0135 33.1711 40.0135 31.1332C40.0135 30.0477 39.5646 29.0618 38.8385 28.3272C40.6588 27.8452 42 26.2568 42 24.3723C41.9995 22.9804 41.2665 21.7502 40.15 21.0078ZM1.46209 38.7855V14.0155H9.6805V15.9611C9.67952 15.9804 9.68001 15.9998 9.6805 16.0191V37.1362C9.68001 37.156 9.67904 37.1759 9.6805 37.1957V38.786H1.46209V38.7855ZM37.6854 27.0282H33.938C33.9366 27.0282 33.9351 27.0287 33.9332 27.0287H33.1651C32.7615 27.0287 32.434 27.3539 32.434 27.7547C32.434 28.1554 32.7615 28.4806 33.1651 28.4806H35.6969C37.2706 28.4806 38.5509 29.6707 38.5509 31.1327C38.5509 32.5947 37.2706 33.7843 35.6969 33.7843H33.1748C33.1714 33.7843 33.1685 33.7838 33.1651 33.7838H30.4778C30.0742 33.7838 29.7467 34.109 29.7467 34.5098C29.7467 34.9105 30.0742 35.2357 30.4778 35.2357H33.1602C33.1617 35.2357 33.1631 35.2362 33.1651 35.2362H33.1748C34.7397 35.2415 36.0113 36.4316 36.0113 37.8951C36.0113 39.3576 34.7344 40.5476 33.1699 40.5476L25.5047 40.4949C21.6925 40.3705 13.2383 37.399 11.1426 36.6421V16.3821C12.726 15.3004 19.2114 10.5625 18.8288 5.77516C18.666 3.74011 19.0169 2.3042 19.8167 1.73168C20.4819 1.25595 21.2427 1.51777 21.4606 1.60875C22.9343 2.23016 25.4862 4.43992 25.6982 8.78248C25.8907 12.5564 24.3516 13.9681 24.2926 14.0204C24.0592 14.2178 23.9744 14.5382 24.0796 14.8242C24.1859 15.1098 24.4593 15.2995 24.7659 15.2995H37.6849C39.2576 15.2995 40.5369 16.4111 40.5369 17.7774C40.5369 19.1503 39.2576 20.2678 37.6849 20.2678H34.5594C34.1559 20.2678 33.8284 20.5925 33.8284 20.9937C33.8284 21.3949 34.1559 21.7197 34.5594 21.7197H37.6849C39.2576 21.7197 40.5369 22.9093 40.5369 24.3723C40.5374 25.8362 39.2581 27.0282 37.6854 27.0282Z" fill="#33CE68"/>
</svg>
