<svg width="60" height="33" viewBox="0 0 60 33" fill="none" xmlns="http://www.w3.org/2000/svg">
<path d="M40.3893 22.7468C38.5948 21.281 36.0435 21.3464 34.3256 22.7761L22.9589 13.7329C23.1009 13.1902 23.1506 12.6219 23.0928 12.0468C22.9645 10.7795 22.3508 9.638 21.3637 8.83259C19.3271 7.1701 16.3171 7.47508 14.6546 9.51165C13.1614 11.3409 13.2597 13.952 14.7704 15.6705L7.72578 23.6954C6.74733 22.9199 5.52739 22.5564 4.28628 22.6871C3.01902 22.8147 1.8775 23.429 1.07209 24.4155C-0.590402 26.4527 -0.285415 29.4621 1.75115 31.1246C2.61072 31.8261 3.66261 32.1996 4.75745 32.1996C4.9199 32.1996 5.08298 32.1915 5.24667 32.1747C6.51393 32.0464 7.65545 31.4327 8.46086 30.4456C9.26628 29.459 9.63911 28.2179 9.51089 26.9507C9.44553 26.3034 9.25134 25.689 8.94697 25.1351L16.2648 16.799C16.9246 17.1208 17.6335 17.2932 18.3449 17.2932C19.7292 17.2932 21.1023 16.695 22.0434 15.5423C22.0689 15.5112 22.0894 15.4782 22.1137 15.4464L33.1499 24.2269C32.1198 26.1907 32.5754 28.6791 34.3586 30.135C35.2424 30.8557 36.3087 31.2068 37.3693 31.2068C38.7535 31.2068 40.1266 30.6093 41.0677 29.4559C41.8731 28.4694 42.2459 27.2283 42.1177 25.961C41.9901 24.6938 41.3752 23.5522 40.3893 22.7468ZM7.01373 29.2655C6.52388 29.8661 5.82926 30.2395 5.05808 30.3174C4.29001 30.3976 3.53252 30.1686 2.93126 29.6787C1.69202 28.6673 1.50716 26.8368 2.51797 25.5963C3.52941 24.357 5.3612 24.1722 6.59982 25.1836C6.71932 25.2813 6.82265 25.3927 6.9241 25.5054C6.97576 25.6062 7.04547 25.7002 7.13635 25.7799C7.41581 26.1801 7.6013 26.6401 7.65234 27.1393C7.73076 27.9098 7.5042 28.6648 7.01373 29.2655ZM20.5962 14.3616C20.1064 14.9616 19.4118 15.335 18.6412 15.4135C17.87 15.4913 17.115 15.2647 16.5144 14.7748C15.2751 13.7634 15.0897 11.9322 16.1011 10.693C17.1125 9.45314 18.9443 9.26828 20.1829 10.2797C20.7836 10.7696 21.157 11.4642 21.2348 12.2354C21.3133 13.0059 21.0861 13.7609 20.5962 14.3616ZM39.6212 28.2752C38.6104 29.5138 36.7792 29.7005 35.5393 28.6885C34.3001 27.677 34.1146 25.8459 35.126 24.606C35.6987 23.9045 36.534 23.541 37.3761 23.541C38.0209 23.541 38.6701 23.7545 39.2079 24.1933C40.4471 25.2048 40.6326 27.0353 39.6212 28.2752Z" fill="#1677BD"/>
<path d="M44.6964 18.731C44.2931 18.4098 43.7055 18.4783 43.385 18.8804L41.9696 20.6611C41.6484 21.0644 41.7156 21.6526 42.119 21.9726C42.2908 22.1095 42.4955 22.1755 42.6997 22.1755C42.9742 22.1755 43.2468 22.0547 43.431 21.8232L44.8464 20.0424C45.167 19.6391 45.1004 19.0509 44.6964 18.731Z" fill="#1677BD"/>
<path d="M50.5802 11.3366C50.1781 11.016 49.5893 11.0826 49.2687 11.486L46.3272 15.1831C46.006 15.5865 46.0732 16.174 46.4765 16.4952C46.6477 16.6321 46.8531 16.6981 47.0573 16.6981C47.3318 16.6981 47.6044 16.5774 47.7886 16.3458L50.7302 12.6486C51.0501 12.2453 50.9835 11.6577 50.5802 11.3366Z" fill="#1677BD"/>
<path d="M54.9384 5.85874C54.5363 5.53757 53.9475 5.60541 53.6269 6.00812L52.2103 7.78887C51.8891 8.1922 51.9564 8.77976 52.3597 9.10093C52.5309 9.23787 52.7363 9.30384 52.9404 9.30384C53.2149 9.30384 53.4875 9.18309 53.6718 8.95155L55.0884 7.1708C55.4083 6.76747 55.3417 6.17991 54.9384 5.85874Z" fill="#1677BD"/>
<path d="M59.042 0.17222C58.7899 -0.00703749 58.4656 -0.0487401 58.1774 0.0583165L51.1858 2.64884C50.7028 2.8281 50.4557 3.36525 50.6349 3.84887C50.8136 4.33187 51.3501 4.57897 51.835 4.40033L57.5457 2.28472L57.4405 8.37388C57.4318 8.88987 57.8426 9.31436 58.3586 9.32369C58.3642 9.32369 58.3698 9.32369 58.3748 9.32369C58.8827 9.32369 59.2984 8.91601 59.3078 8.40624L59.436 0.95087C59.441 0.641526 59.2941 0.350233 59.042 0.17222Z" fill="#1677BD"/>
</svg>
