<svg width="42" height="42" viewBox="0 0 42 42" fill="none" xmlns="http://www.w3.org/2000/svg">
<path d="M36.4985 10.4393C37.12 7.31708 37.3963 3.28503 35.1802 1.8089C32.9645 0.331097 29.3493 2.13786 26.7068 3.91365C23.8763 5.81584 20.8968 8.58478 19.6216 10.4983L18.6431 11.9669C17.1925 11.9258 12.3092 11.8472 10.5401 12.5687C8.60942 13.358 5.09174 17.5186 4.92266 19.2136C4.86155 19.8221 5.1654 20.1214 5.3508 20.2444C5.71283 20.4863 6.72607 20.5738 8.00382 20.5738C9.54064 20.5738 11.4558 20.447 13.0847 20.3097L12.6565 20.9521C12.6544 20.9551 12.6519 20.9576 12.6498 20.9605C12.6477 20.9634 12.6469 20.9672 12.6448 20.9701L9.95037 25.0147C8.14277 27.7272 8.14863 31.27 9.91814 33.9732L8.75925 35.7122C8.30139 36.3994 8.1503 37.2293 8.33403 38.05C8.51567 38.8603 9.00325 39.5642 9.70637 40.0322C10.2643 40.4042 10.8941 40.5825 11.5115 40.5825C12.5109 40.5825 13.4785 40.115 14.059 39.2445L15.2154 37.5089C15.7101 37.6018 16.2073 37.6483 16.7011 37.6483C19.3772 37.6483 21.9498 36.3186 23.4779 34.0268L26.8256 29.0024C27.7422 31.8521 29.0656 35.5845 29.8628 36.1148C29.9725 36.1876 30.1537 36.2751 30.3948 36.2751C30.563 36.2751 30.7602 36.232 30.982 36.1123C32.4807 35.302 34.9651 30.4534 34.9491 28.3688C34.9358 26.4582 32.98 21.98 32.384 20.6596L33.1478 19.5132C34.4235 17.6014 35.8327 13.7853 36.4985 10.4393ZM20.6662 11.1947C21.6912 9.65662 24.3358 7.01993 27.407 4.95577C30.6446 2.78029 33.2232 2.01356 34.4838 2.85395C35.7431 3.69267 36.0285 6.36787 35.2668 10.1944C34.544 13.8247 33.1286 17.28 32.1032 18.8172L25.4813 28.7563L17.6424 23.534C17.6395 23.5319 17.6374 23.5294 17.634 23.5273C17.6311 23.5252 17.6278 23.5244 17.6244 23.5223L14.0431 21.1363L19.4651 12.9977C19.4814 12.9768 19.4956 12.9546 19.5094 12.9316L20.6662 11.1947ZM6.1799 19.2404C6.3787 18.1736 9.34016 14.4161 11.0147 13.7314C12.2192 13.2404 15.6845 13.1781 17.8173 13.2065L13.9774 18.9704C10.7468 19.2667 7.06968 19.4346 6.1799 19.2404ZM10.995 25.7116L13.3475 22.1805L16.4153 24.2241L10.6878 32.8189C9.47786 30.6037 9.56868 27.8519 10.995 25.7116ZM13.0148 38.5485C12.4598 39.3801 11.288 39.5781 10.4028 38.9875C9.9692 38.6996 9.66996 38.2689 9.55905 37.7755C9.45107 37.2933 9.53812 36.8079 9.80389 36.4086L11.1938 34.3231C11.203 34.3097 11.2126 34.2967 11.2206 34.2829L17.4599 24.9201L20.67 27.0588L13.0148 38.5485ZM22.4341 33.3304C21.0056 35.4724 18.4983 36.6162 15.9876 36.3508L21.715 27.7548L24.7857 29.8005L22.4341 33.3304ZM33.694 28.3784C33.7078 30.186 31.3892 34.3541 30.4777 34.9601C29.9319 34.1666 28.6822 30.7355 27.7188 27.6623L31.5583 21.8992C32.4066 23.8558 33.6844 27.0776 33.694 28.3784Z" fill="#B225FF"/>
<path d="M24.0659 18.0626C24.9021 18.6205 25.8492 18.8876 26.7867 18.8876C28.3784 18.8876 29.9428 18.1179 30.8916 16.6962L30.892 16.6958C32.3945 14.4366 31.7801 11.3747 29.5226 9.87007C28.4282 9.141 27.1144 8.88236 25.827 9.14058C24.5376 9.39881 23.4268 10.1434 22.699 11.2374C21.9695 12.3314 21.71 13.6439 21.9683 14.9329C22.2261 16.2216 22.9715 17.3332 24.0659 18.0626ZM23.7441 11.933C24.286 11.1185 25.113 10.564 26.0731 10.3715C26.3159 10.3229 26.5595 10.2991 26.8009 10.2991C27.517 10.2991 28.2172 10.5092 28.8262 10.9151C30.5082 12.0359 30.9657 14.3165 29.8465 15.9998C28.7232 17.683 26.4423 18.1384 24.7623 17.0184C23.9466 16.4748 23.3912 15.6469 23.1991 14.6868C23.0066 13.7259 23.2 12.7487 23.7441 11.933Z" fill="#B225FF"/>
</svg>
