<svg width="131" height="77" viewBox="0 0 131 77" fill="none" xmlns="http://www.w3.org/2000/svg">
<g clip-path="url(#clip0)">
<path d="M129.67 1.30001C129.67 1.30001 129.13 1.23001 128.11 1.09001C127.09 0.970006 125.62 0.710006 123.67 0.550005C121.73 0.330005 119.39 0.200006 116.7 0.0600055C115.35 0.0400055 113.92 0.0200055 112.41 -0.00999451C110.9 0.0400055 109.31 0.0500055 107.66 0.130005C104.35 0.310005 100.77 0.560005 97.0099 1.13001C93.2499 1.66001 89.3099 2.41001 85.2799 3.40001C81.2399 4.36001 77.1399 5.62001 73.0199 7.06001C68.8899 8.47001 64.8099 10.24 60.7899 12.13C56.7599 14.01 52.9099 16.24 49.1699 18.53C45.4199 20.81 41.9399 23.37 38.6399 25.94C37.0199 27.26 35.4199 28.55 33.9399 29.92C32.4199 31.24 30.9999 32.61 29.6299 33.94C28.2499 35.27 27.0099 36.67 25.7599 37.97C24.5599 39.32 23.4199 40.64 22.3699 41.93C21.3499 43.25 20.3099 44.47 19.4399 45.73C18.5699 46.98 17.7099 48.14 16.9599 49.27C16.2299 50.42 15.5599 51.49 14.9299 52.48C14.3199 53.48 13.8199 54.44 13.3399 55.28C12.8599 56.12 12.4399 56.88 12.1199 57.57C11.7899 58.25 11.5099 58.82 11.2799 59.29C10.8299 60.23 10.5999 60.73 10.5999 60.73C10.3799 61.2 10.5799 61.77 11.0499 61.99C11.4699 62.19 11.9599 62.05 12.2199 61.69L12.2399 61.66C12.2399 61.66 12.5599 61.22 13.1699 60.39C13.7799 59.57 14.5999 58.32 15.7599 56.82C16.3299 56.06 16.9499 55.22 17.6299 54.3C18.3299 53.4 19.0999 52.44 19.9099 51.4C21.5399 49.34 23.4599 47.08 25.5899 44.65C26.6599 43.44 27.8299 42.24 28.9899 40.94C30.2199 39.71 31.4299 38.38 32.7799 37.12C35.3899 34.5 38.3199 31.92 41.3999 29.33C42.1699 28.68 42.9799 28.06 43.7799 27.42C44.5799 26.78 45.3899 26.14 46.2299 25.53C47.0599 24.91 47.8999 24.28 48.7399 23.65C49.5999 23.05 50.4699 22.44 51.3399 21.84C54.8599 19.47 58.5199 17.17 62.3299 15.14C66.1399 13.1 70.0299 11.18 73.9899 9.60001C77.9499 8.03001 81.9099 6.59001 85.8399 5.55001C86.8199 5.26001 87.7899 5.01001 88.7599 4.78001C89.7299 4.55001 90.6899 4.32001 91.6499 4.09001C93.5699 3.72001 95.4499 3.30001 97.2899 3.05001C100.97 2.42001 104.49 2.12001 107.74 1.89001C109.37 1.80001 110.93 1.79001 112.41 1.74001C113.89 1.76001 115.3 1.78001 116.63 1.80001C117.95 1.88001 119.19 1.95001 120.33 2.01001C121.48 2.09001 122.51 2.24001 123.46 2.33001C125.33 2.50001 126.83 2.77001 127.84 2.93001C128.85 3.09001 129.39 3.18001 129.39 3.18001C129.91 3.26001 130.39 2.91001 130.47 2.39001C130.55 1.87001 130.2 1.39001 129.68 1.31001C129.68 1.30001 129.67 1.30001 129.67 1.30001Z" fill="#4AA4E5"/>
<path d="M2.8299 51.04C2.9599 52.02 3.01991 52.98 3.09991 53.93C3.13991 54.89 3.15991 55.86 3.15991 56.83C3.15991 58.76 3.01991 60.69 2.78991 62.61C2.66991 63.57 2.51991 64.52 2.34991 65.47C2.17991 66.42 1.9599 67.36 1.7499 68.29C1.2899 70.16 0.71991 71.99 0.0999088 73.8C-0.210091 74.7 0.269907 75.67 1.15991 75.98C1.53991 76.11 1.91991 76.1 2.26991 75.98L2.53991 75.89L4.99991 75.05C5.81991 74.76 6.63991 74.5 7.44991 74.2C8.25991 73.9 9.07991 73.63 9.88991 73.33L12.3199 72.44C13.9399 71.84 15.5299 71.18 17.1099 70.44C18.6799 69.69 20.2399 68.89 21.7299 67.85C22.1799 67.54 22.2899 66.86 21.9799 66.41C21.7899 66.14 21.4899 65.93 21.1799 65.93H21.1599C20.2399 65.93 19.3499 66.09 18.4599 66.19C17.5799 66.33 16.6999 66.5 15.8399 66.7C14.1099 67.09 12.4199 67.62 10.7699 68.24C9.11991 68.87 7.47991 69.53 5.87991 70.27C4.26991 71 2.68991 71.79 1.12991 72.62L3.56991 74.71C3.74991 73.72 3.89991 72.73 4.02991 71.73C4.15991 70.74 4.26991 69.74 4.36991 68.75C4.46991 67.76 4.53991 66.76 4.61991 65.77C4.69991 64.78 4.74991 63.78 4.79991 62.79C4.84991 61.8 4.86991 60.81 4.89991 59.82L4.91991 56.85C4.90991 55.86 4.97991 54.87 4.93991 53.88L4.90991 50.92V50.9C4.90991 50.38 4.34991 49.97 3.8299 49.99C3.3099 50.01 2.84991 50.45 2.87991 50.98C2.86991 50.98 2.8199 51.01 2.8299 51.04Z" fill="#4AA4E5"/>
</g>
<defs>
<clipPath id="clip0">
<rect width="130.49" height="76.06" fill="white" transform="matrix(-1 0 0 1 130.49 0)"/>
</clipPath>
</defs>
</svg>
