<svg width="56" height="56" viewBox="0 0 56 56" fill="none" xmlns="http://www.w3.org/2000/svg">
<g filter="url(#filter0_d)">
<circle cx="28" cy="28" r="23" fill="#5CBBFF"/>
</g>
<path d="M41.4182 18.4437H35.0287C35.8552 17.169 35.9836 15.8139 35.2847 14.8948C34.9209 14.4154 34.3713 14.1151 33.6953 14.0275C32.5655 13.8799 31.1991 14.3416 30.0367 15.2583C29.3847 15.7705 28.8646 16.3711 28.5004 16.997C28.1343 16.3676 27.6107 15.7646 26.9672 15.2591C25.0299 13.7331 22.7229 13.5729 21.7137 14.8952C21.0168 15.8147 21.1455 17.1698 21.9709 18.444H15.5818C15.2602 18.444 15 18.7088 15 19.036V25.2634C15 25.5906 15.2602 25.8554 15.5818 25.8554H16.9249V41.4081C16.9249 41.7348 17.1852 42 17.5067 42H39.4952C39.8164 42 40.077 41.7348 40.077 41.4081V25.855H41.4182C41.7394 25.855 42 25.5902 42 25.2631V19.0356C42 18.7084 41.7394 18.4437 41.4182 18.4437ZM30.7488 16.1947C31.6602 15.4761 32.7354 15.0957 33.5475 15.2019C33.9156 15.2496 34.1898 15.3897 34.3636 15.619C34.8375 16.2425 34.478 17.4287 33.5402 18.444H29.1528C29.3389 17.6884 29.9234 16.8431 30.7488 16.1947ZM22.6341 15.6194C23.2124 14.8617 24.9046 15.1312 26.2551 16.1951C27.0785 16.8427 27.6638 17.684 27.8503 18.4437H23.4579C22.522 17.4283 22.1629 16.2417 22.6341 15.6194ZM16.1636 19.6275H27.919V24.6711H16.1636V19.6275ZM18.0885 25.855H27.919V40.8158H18.0885V25.855ZM38.9135 40.8158H29.0826V25.855H38.9135V40.8158ZM40.8364 24.6711H29.0826V19.6275H33.7868C33.7872 19.6275 33.7872 19.6275 33.7876 19.6275H40.8364V24.6711Z" fill="white"/>
<defs>
<filter id="filter0_d" x="0" y="0" width="56" height="56" filterUnits="userSpaceOnUse" color-interpolation-filters="sRGB">
<feFlood flood-opacity="0" result="BackgroundImageFix"/>
<feColorMatrix in="SourceAlpha" type="matrix" values="0 0 0 0 0 0 0 0 0 0 0 0 0 0 0 0 0 0 127 0"/>
<feOffset/>
<feGaussianBlur stdDeviation="2.5"/>
<feColorMatrix type="matrix" values="0 0 0 0 0.433333 0 0 0 0 0.763599 0 0 0 0 1 0 0 0 1 0"/>
<feBlend mode="normal" in2="BackgroundImageFix" result="effect1_dropShadow"/>
<feBlend mode="normal" in="SourceGraphic" in2="effect1_dropShadow" result="shape"/>
</filter>
</defs>
</svg>
