<svg width="34" height="33" viewBox="0 0 34 33" fill="none" xmlns="http://www.w3.org/2000/svg">
<path d="M33.3415 3.66344H26.3843V0.658498C26.3843 0.294568 26.0892 0 25.7258 0C25.3623 0 25.0673 0.294568 25.0673 0.658498V3.66344H8.18118V0.658498C8.18118 0.294568 7.88661 0 7.52268 0C7.15875 0 6.86418 0.294568 6.86418 0.658498V3.66344H0.658498C0.294568 3.66344 0 3.95801 0 4.32194V31.733C0 32.0965 0.294568 32.3915 0.658498 32.3915H33.3415C33.705 32.3915 34 32.0965 34 31.733V4.32194C34 3.95801 33.705 3.66344 33.3415 3.66344ZM32.683 31.0745H1.317V4.98044H6.86418V6.97393C6.86418 7.33786 7.15875 7.63243 7.52268 7.63243C7.88661 7.63243 8.18118 7.33786 8.18118 6.97393V4.98044H25.0673V6.97393C25.0673 7.33786 25.3623 7.63243 25.7258 7.63243C26.0892 7.63243 26.3843 7.33786 26.3843 6.97393V4.98044H32.683V31.0745Z" fill="#4AA4E5"/>
<path d="M26.174 22.4921L23.9522 20.2695C23.6949 20.0122 23.2783 20.0122 23.0211 20.2695C22.7638 20.5263 22.7638 20.9433 23.0211 21.2006L25.2428 23.4232L23.0211 25.6459C22.7638 25.9031 22.7638 26.3202 23.0211 26.577C23.1497 26.7056 23.3183 26.7697 23.4868 26.7697C23.6554 26.7697 23.824 26.7056 23.9526 26.577L26.1744 24.3544L28.3962 26.577C28.5248 26.7056 28.6934 26.7697 28.8619 26.7697C29.0305 26.7697 29.1991 26.7056 29.3277 26.577C29.585 26.3202 29.585 25.9031 29.3277 25.6459L27.1059 23.4232L29.3277 21.2006C29.585 20.9433 29.585 20.5263 29.3277 20.2695C29.0705 20.0122 28.6539 20.0122 28.3966 20.2695L26.174 22.4921Z" fill="#4AA4E5"/>
<path d="M9.95293 11.1818H5.89263C5.5287 11.1818 5.23413 11.4763 5.23413 11.8403V15.8997C5.23413 16.2636 5.5287 16.5582 5.89263 16.5582H9.95293C10.3169 16.5582 10.6114 16.2632 10.6114 15.8997V11.8403C10.6114 11.4763 10.3169 11.1818 9.95293 11.1818ZM9.29443 15.2412H6.55113V12.4988H9.29443V15.2412Z" fill="#4AA4E5"/>
<path d="M19.2039 11.1818H15.1449C14.781 11.1818 14.4865 11.4763 14.4865 11.8403V15.8997C14.4865 16.2636 14.781 16.5582 15.1449 16.5582H19.2039C19.5674 16.5582 19.8624 16.2632 19.8624 15.8997V11.8403C19.8624 11.4763 19.5679 11.1818 19.2039 11.1818ZM18.5454 15.2412H15.8034V12.4988H18.5454V15.2412Z" fill="#4AA4E5"/>
<path d="M9.95293 20.5193H5.89263C5.5287 20.5193 5.23413 20.8143 5.23413 21.1778V25.2372C5.23413 25.6007 5.5287 25.8957 5.89263 25.8957H9.95293C10.3169 25.8957 10.6114 25.6007 10.6114 25.2372V21.1778C10.6114 20.8143 10.3169 20.5193 9.95293 20.5193ZM9.29443 24.5787H6.55113V21.8363H9.29443V24.5787Z" fill="#4AA4E5"/>
<path d="M19.2039 20.5193H15.1449C14.781 20.5193 14.4865 20.8143 14.4865 21.1778V25.2372C14.4865 25.6007 14.781 25.8957 15.1449 25.8957H19.2039C19.5674 25.8957 19.8624 25.6007 19.8624 25.2372V21.1778C19.8624 20.8143 19.5679 20.5193 19.2039 20.5193ZM18.5454 24.5787H15.8034V21.8363H18.5454V24.5787Z" fill="#4AA4E5"/>
<path d="M23.9728 11.1818C23.6093 11.1818 23.3143 11.4763 23.3143 11.8403V15.8997C23.3143 16.2636 23.6093 16.5582 23.9728 16.5582H28.0331C28.3966 16.5582 28.6916 16.2632 28.6916 15.8997V11.8403C28.6916 11.4763 28.3966 11.1818 28.0331 11.1818H23.9728ZM27.3746 15.2412H24.6313V12.4988H27.3746V15.2412Z" fill="#4AA4E5"/>
</svg>
