<svg width="57" height="55" viewBox="0 0 57 55" fill="none" xmlns="http://www.w3.org/2000/svg">
<path d="M27.9522 54.8104C12.5394 54.8104 0 42.5174 0 27.4066C0 12.2945 12.5394 0 27.9522 0C34.0803 0 39.9328 1.93808 44.8764 5.60547C45.8389 6.31876 46.04 7.67716 45.326 8.63889C44.6134 9.59993 43.255 9.80313 42.2926 9.08914C38.1019 5.98056 33.1429 4.33754 27.9522 4.33754C14.9312 4.33754 4.33754 14.6863 4.33754 27.4059C4.33754 40.1249 14.9312 50.4729 27.9522 50.4729C40.9738 50.4729 51.5675 40.1249 51.5675 27.4059C51.5675 25.6244 51.3692 23.8923 50.9788 22.2569C50.7011 21.092 51.42 19.9222 52.5849 19.6438C53.7457 19.3655 54.919 20.0843 55.198 21.25C55.6671 23.2152 55.9051 25.2862 55.9051 27.4066C55.9044 42.5174 43.3657 54.8104 27.9522 54.8104Z" fill="#4AA4E5"/>
<path d="M27.4046 40.5459C26.8305 40.5459 26.2786 40.3183 25.8708 39.9112L11.0558 25.0976C10.2089 24.2507 10.2089 22.8777 11.0558 22.0308C11.9027 21.1838 13.2758 21.1832 14.1227 22.0308L27.3148 35.2215L53.2134 6.21228C54.0116 5.31874 55.3832 5.2415 56.2754 6.039C57.1689 6.8365 57.2468 8.20742 56.4493 9.10095L29.0226 39.8214C28.6252 40.2668 28.0622 40.5285 27.4665 40.5452C27.445 40.5459 27.4248 40.5459 27.4046 40.5459Z" fill="#4AA4E5"/>
</svg>
