<svg width="22" height="25" viewBox="0 0 22 25" fill="none" xmlns="http://www.w3.org/2000/svg">
<path d="M21.7752 13.9062C22.4912 7.87922 21.4312 4.07421 19.5192 2.35321L19.5202 2.35221C16.4342 -0.586792 6.0122 -1.02179 2.3202 2.48421C0.662197 4.19921 0.0781966 6.71622 0.0141966 9.83222C-0.0498034 12.9492 -0.125803 18.7882 5.3152 20.3722H5.3202L5.3152 22.7912C5.3152 22.7912 5.2782 23.7712 5.9042 23.9682C6.6202 24.2002 6.9442 23.7452 9.1712 21.0852C12.8952 21.4082 15.7552 20.6682 16.0802 20.5602C16.8322 20.3082 21.0872 19.7452 21.7752 13.9062ZM9.5382 19.3832C9.5382 19.3832 7.1812 22.3222 6.4482 23.0852C6.2082 23.3332 5.9452 23.3102 5.9492 22.8182C5.9492 22.4952 5.9672 18.8022 5.9672 18.8022C1.3542 17.4802 1.6262 12.5082 1.6762 9.90722C1.7262 7.30522 2.2022 5.17421 3.6062 3.73921C6.8452 0.702209 15.9822 1.38121 18.3102 3.56921C21.1562 6.09222 20.1432 13.2202 20.1492 13.4632C19.5642 18.3372 16.1162 18.6462 15.4822 18.8572C15.2112 18.9472 12.6962 19.5942 9.5382 19.3832Z" fill="white"/>
<path d="M10.8423 4.31018C10.4573 4.31018 10.4573 4.91018 10.8423 4.91518C13.8293 4.93818 16.2893 7.02018 16.3163 10.8392C16.3163 11.2422 16.9063 11.2372 16.9013 10.8342H16.9003C16.8683 6.71918 14.1823 4.33318 10.8423 4.31018Z" fill="white"/>
<path d="M14.7712 10.2062C14.7622 10.6042 15.3512 10.6232 15.3562 10.2202C15.4052 7.95122 14.0062 6.08222 11.3772 5.88522C10.9922 5.85722 10.9522 6.46222 11.3362 6.49022C13.6162 6.66322 14.8172 8.21922 14.7712 10.2062Z" fill="white"/>
<path d="M14.1412 12.7872C13.6472 12.5012 13.1442 12.6792 12.9362 12.9602L12.5012 13.5232C12.2802 13.8092 11.8672 13.7712 11.8672 13.7712C8.8532 12.9742 8.0472 9.82023 8.0472 9.82023C8.0472 9.82023 8.01021 9.39323 8.2862 9.16423L8.8302 8.71423C9.1022 8.49823 9.2742 7.97823 8.9972 7.46723C8.2572 6.13023 7.76021 5.66923 7.50721 5.31523C7.24121 4.98223 6.84121 4.90723 6.42521 5.13223H6.41621C5.55121 5.63823 4.60421 6.58523 4.90721 7.56023C5.42421 8.58823 6.37421 11.8652 9.4022 14.3412C10.8252 15.5122 13.0772 16.7122 14.0332 16.9892L14.0422 17.0032C14.9842 17.3172 15.9002 16.3332 16.3892 15.4422V15.4352C16.6062 15.0042 16.5342 14.5962 16.2172 14.3292C15.6552 13.7812 14.8072 13.1762 14.1412 12.7872Z" fill="white"/>
<path d="M11.7892 8.11724C12.7502 8.17324 13.2162 8.67524 13.2662 9.70624C13.2842 10.1092 13.8692 10.0812 13.8512 9.67824C13.7872 8.33224 13.0852 7.58224 11.8212 7.51224C11.4362 7.48924 11.4002 8.09424 11.7892 8.11724Z" fill="white"/>
</svg>
