<svg width="20" height="20" viewBox="0 0 20 20" fill="none" xmlns="http://www.w3.org/2000/svg">
<path d="M10 20C15.5228 20 20 15.5228 20 10C20 4.47715 15.5228 0 10 0C4.47715 0 0 4.47715 0 10C0 15.5228 4.47715 20 10 20Z" fill="#039BE5"/>
<path d="M4.57581 9.78335L14.2175 6.06585C14.665 5.90419 15.0558 6.17502 14.9108 6.85169L14.9116 6.85085L13.27 14.585C13.1483 15.1334 12.8225 15.2667 12.3666 15.0084L9.86664 13.1659L8.66081 14.3275C8.52747 14.4609 8.41497 14.5734 8.15664 14.5734L8.33414 12.0292L12.9675 7.84335C13.1691 7.66585 12.9225 7.56585 12.6566 7.74252L6.93081 11.3475L4.46247 10.5775C3.92664 10.4075 3.91497 10.0417 4.57581 9.78335Z" fill="white"/>
</svg>
