<svg width="20" height="20" viewBox="0 0 20 20" fill="none" xmlns="http://www.w3.org/2000/svg">
<path d="M10 20C15.5228 20 20 15.5228 20 10C20 4.47715 15.5228 0 10 0C4.47715 0 0 4.47715 0 10C0 15.5228 4.47715 20 10 20Z" fill="#6F3FAA"/>
<path d="M15.2903 7.02828L15.287 7.01508C15.0198 5.93488 13.8152 4.77582 12.7089 4.53469L12.6965 4.53211C10.9072 4.19078 9.09291 4.19078 7.304 4.53211L7.29115 4.53469C6.18529 4.77582 4.98064 5.93496 4.71311 7.01508L4.71014 7.02828C4.37982 8.53676 4.37982 10.0666 4.71014 11.5751L4.71311 11.5883C4.96928 12.6223 6.08416 13.7282 7.14912 14.0323V15.2381C7.14912 15.6745 7.68096 15.8889 7.98338 15.5739L9.20506 14.304C9.47006 14.3188 9.73518 14.3271 10.0002 14.3271C10.9009 14.3271 11.802 14.2419 12.6964 14.0713L12.7089 14.0687C13.8151 13.8276 15.0197 12.6684 15.2869 11.5883L15.2902 11.5751C15.6205 10.0666 15.6205 8.53684 15.2903 7.02828ZM14.3234 11.3564C14.145 12.0611 13.2304 12.9372 12.5037 13.0991C11.5523 13.28 10.5934 13.3573 9.63541 13.3308C9.61635 13.3302 9.59803 13.3377 9.58479 13.3513C9.44881 13.4909 8.69279 14.267 8.69279 14.267L7.74404 15.2408C7.67467 15.3131 7.55279 15.2639 7.55279 15.1641V13.1666C7.55279 13.1336 7.52924 13.1055 7.49682 13.0991C7.49662 13.0991 7.49647 13.0991 7.49627 13.099C6.76955 12.9372 5.85525 12.0611 5.67654 11.3563C5.37924 9.99281 5.37924 8.61055 5.67654 7.24703C5.85525 6.54231 6.76955 5.66621 7.49627 5.50434C9.15783 5.18832 10.8425 5.18832 12.5037 5.50434C13.2308 5.66621 14.1451 6.54231 14.3235 7.24703C14.6211 8.61059 14.6211 9.99285 14.3234 11.3564Z" fill="white"/>
<path d="M11.5809 12.2784C11.4692 12.2445 11.3628 12.2217 11.2638 12.1807C10.2392 11.7556 9.29622 11.2071 8.5493 10.3665C8.12454 9.88844 7.79208 9.34871 7.51106 8.77754C7.37778 8.50668 7.26548 8.22524 7.15098 7.94555C7.04661 7.69055 7.20036 7.42711 7.36223 7.23492C7.51415 7.05457 7.70966 6.9166 7.92137 6.81485C8.08661 6.73547 8.24958 6.78125 8.37028 6.92129C8.63114 7.2241 8.87083 7.54238 9.06481 7.8934C9.18415 8.1093 9.15141 8.37321 8.93512 8.52012C8.88255 8.55582 8.83466 8.59778 8.78571 8.63809C8.74274 8.67344 8.70235 8.70914 8.6729 8.75699C8.61911 8.84453 8.61653 8.94785 8.65114 9.04305C8.91782 9.7759 9.36731 10.3458 10.105 10.6528C10.2231 10.7019 10.3416 10.7591 10.4776 10.7432C10.7053 10.7166 10.7791 10.4668 10.9387 10.3363C11.0947 10.2088 11.294 10.2071 11.462 10.3134C11.6301 10.4198 11.793 10.5339 11.955 10.6494C12.114 10.7627 12.2722 10.8734 12.4188 11.0026C12.5598 11.1268 12.6084 11.2897 12.529 11.4581C12.3836 11.7668 12.1721 12.0234 11.8671 12.1873C11.7809 12.2335 11.6781 12.2485 11.5809 12.2784C11.4692 12.2445 11.6781 12.2485 11.5809 12.2784Z" fill="white"/>
<path d="M10.003 6.46196C11.3432 6.49953 12.444 7.38895 12.6799 8.71395C12.7201 8.93973 12.7344 9.17051 12.7523 9.39969C12.7598 9.49606 12.7052 9.58762 12.6013 9.58891C12.4938 9.5902 12.4455 9.50028 12.4385 9.40399C12.4247 9.21328 12.4151 9.02168 12.3888 8.83262C12.2501 7.83422 11.454 7.00824 10.4603 6.83102C10.3107 6.80434 10.1577 6.79735 10.0062 6.78145C9.91046 6.77141 9.78507 6.76563 9.76386 6.64656C9.74609 6.54676 9.83031 6.46731 9.92535 6.46219C9.95109 6.46067 9.97707 6.46188 10.003 6.46196C11.3433 6.49953 9.97707 6.46188 10.003 6.46196Z" fill="white"/>
<path d="M12.0398 9.1023C12.0375 9.11906 12.0364 9.1584 12.0266 9.19543C11.991 9.32996 11.7869 9.3468 11.74 9.21105C11.7261 9.17078 11.724 9.12492 11.7239 9.08156C11.7235 8.79773 11.6618 8.51414 11.5186 8.26715C11.3715 8.01328 11.1466 7.79996 10.883 7.67078C10.7235 7.59273 10.5512 7.54418 10.3764 7.51531C10.3 7.50266 10.2228 7.49504 10.1461 7.48434C10.0531 7.47141 10.0034 7.41215 10.0078 7.32051C10.0119 7.23465 10.0747 7.17281 10.1683 7.17816C10.4759 7.19559 10.773 7.26215 11.0464 7.40691C11.6025 7.70141 11.9201 8.16617 12.0128 8.78683C12.017 8.815 12.0237 8.84281 12.0259 8.87102C12.0311 8.94062 12.0344 9.01035 12.0398 9.1023C12.0375 9.11898 12.0344 9.01035 12.0398 9.1023Z" fill="white"/>
<path d="M11.2061 9.06985C11.094 9.07188 11.034 9.00977 11.0224 8.90703C11.0144 8.83539 11.008 8.76274 10.9909 8.69297C10.9572 8.55559 10.8842 8.42832 10.7686 8.34414C10.7141 8.30442 10.6523 8.27547 10.5875 8.25672C10.5053 8.23293 10.4199 8.23949 10.3379 8.21942C10.2488 8.19758 10.1995 8.12539 10.2135 8.04184C10.2262 7.96574 10.3002 7.90637 10.3834 7.91242C10.903 7.94992 11.2743 8.21856 11.3274 8.83028C11.3311 8.87344 11.3355 8.91903 11.3259 8.96039C11.3095 9.03098 11.2571 9.06641 11.2061 9.06985C11.094 9.07184 11.2571 9.06641 11.2061 9.06985Z" fill="white"/>
<path d="M11.5809 12.2784C11.4691 12.2445 11.678 12.2485 11.5809 12.2784V12.2784Z" fill="white"/>
<path d="M10.0061 6.46214C10.005 6.46214 10.004 6.46203 10.0029 6.46203C10.0019 6.46195 10.0032 6.46203 10.0061 6.46214Z" fill="white"/>
<path d="M10.003 6.46195C10.0041 6.46195 10.0052 6.46207 10.0064 6.46207C10.0807 6.46473 11.2904 6.49805 10.003 6.46195Z" fill="white"/>
<path d="M13.6804 4.30635C13.6755 4.2144 13.6783 4.32303 13.6804 4.30635V4.30635Z" fill="white"/>
<path d="M12.847 4.27358C12.8488 4.27347 12.8505 4.27262 12.8522 4.27244C12.8474 4.27244 12.8402 4.27255 12.8327 4.27281C12.8375 4.27292 12.842 4.27361 12.847 4.27358Z" fill="white"/>
<path d="M12.8471 4.27358C12.842 4.27365 12.8376 4.27295 12.8327 4.27281C12.8085 4.27343 12.7834 4.27464 12.8471 4.27358Z" fill="white"/>
<path d="M12.8519 4.27244C12.8503 4.27262 12.8487 4.27347 12.8471 4.27358C12.8594 4.27273 12.8583 4.27244 12.8519 4.27244Z" fill="white"/>
</svg>
