<svg width="46" height="42" viewBox="0 0 46 42" fill="none" xmlns="http://www.w3.org/2000/svg">
<path d="M45.9903 31.8498C45.8868 28.832 44.97 25.1954 43.4086 21.6106C39.9767 13.7289 34.8507 8.94453 31.4872 10.4865L29.5322 11.3809V6.62599C29.5322 2.84884 23.1841 0 14.7661 0C6.34807 0 0 2.84884 0 6.62599V15.1397C0 15.1847 0.00596352 15.2281 0.0130115 15.2715C0.00650567 15.3148 0 15.3582 0 15.4032C0 15.4799 0.0070479 15.5561 0.0119273 15.6317C0.0059636 15.6717 0 15.7123 0 15.754V24.2677C0 24.3127 0.00596352 24.3561 0.0130115 24.3994C0.00650567 24.4428 0 24.4861 0 24.5312C0 24.6273 0.00704793 24.7224 0.0151802 24.8169C0.00596362 24.8664 0 24.9175 0 24.9698V33.4824C0 33.5274 0.00596352 33.5708 0.0130115 33.6141C0.00650567 33.6575 0 33.7008 0 33.7459C0 37.5236 6.34807 40.3724 14.7661 40.3724C20.1014 40.3724 24.9656 39.1267 27.536 37.155C29.8298 40.204 32.2977 42 34.3638 42C34.8361 42 35.2877 41.9066 35.7105 41.7126L43.5268 38.1345C45.228 37.3585 46.1031 35.1255 45.9903 31.8498ZM14.7661 1.66817C22.5097 1.66817 27.9057 4.28132 27.9057 6.62655C27.9057 8.97233 22.5091 11.586 14.7661 11.586C7.02305 11.586 1.62646 8.97233 1.62646 6.62655C1.62646 4.28132 7.02251 1.66817 14.7661 1.66817ZM1.62646 15.1403V9.74499C4.03199 11.8662 8.89402 13.2536 14.7661 13.2536C20.6387 13.2536 25.5007 11.8662 27.9057 9.74499V12.1258L23.6682 14.0647C22.0391 14.8118 21.2139 16.8668 21.1836 19.6817C19.222 20.1203 17.0269 20.3627 14.7655 20.3627C7.02197 20.3627 1.62592 17.7495 1.62592 15.4043C1.62592 15.3593 1.61995 15.3159 1.61291 15.2726C1.61995 15.2287 1.62646 15.1853 1.62646 15.1403ZM1.62646 24.2688V18.5222C4.03199 20.6429 8.89402 22.0303 14.7661 22.0303C17.0323 22.0303 19.2535 21.8074 21.2551 21.3838C21.4395 23.4461 21.9789 25.8002 22.8734 28.2866C20.4706 29.0832 17.7501 29.4907 14.7661 29.4907C7.02251 29.4907 1.62646 26.8775 1.62646 24.5323C1.62646 24.4873 1.6205 24.4439 1.61345 24.4005C1.61995 24.3572 1.62646 24.3138 1.62646 24.2688ZM14.7661 38.7065C7.02251 38.7065 1.62646 36.0928 1.62646 33.7475C1.62646 33.7025 1.6205 33.6591 1.61345 33.6158C1.61995 33.5724 1.62646 33.5291 1.62646 33.484V27.6502C4.03199 29.7708 8.89402 31.1583 14.7661 31.1583C17.9605 31.1583 20.8816 30.7114 23.4709 29.8392C23.5734 30.0893 23.6796 30.34 23.7891 30.5913C24.6365 32.5374 25.5891 34.2856 26.591 35.8054C24.3486 37.5569 19.7311 38.7065 14.7661 38.7065ZM35.048 40.1917C32.9586 41.1479 28.4316 37.1611 25.2746 29.9115C22.1177 22.6618 22.2445 16.5439 24.3308 15.5878L29.3831 13.2759C29.1033 14.2448 28.9781 15.4182 29.0247 16.7734C29.1283 19.7918 30.045 23.4283 31.6064 27.0137C34.0022 32.5152 37.2215 36.498 40.0928 37.8832L35.048 40.1917ZM42.8643 36.6142C40.7764 37.568 36.2484 33.5835 33.0914 26.3339C31.6135 22.9397 30.7466 19.5233 30.6501 16.7145C30.5639 14.2003 31.1109 12.4854 32.1508 12.0091C32.3562 11.9151 32.585 11.869 32.8344 11.869C35.1174 11.869 39.0784 15.7534 41.9247 22.2905C43.4026 25.6841 44.2695 29.0999 44.366 31.9087C44.4511 34.4229 43.9041 36.1378 42.8643 36.6142Z" fill="#4AA4E5"/>
</svg>
