<svg width="44" height="47" viewBox="0 0 44 47" fill="none" xmlns="http://www.w3.org/2000/svg">
<path d="M43.0156 40.1337L26.2469 22.4003L36.5052 11.929L38.3704 13.8329C38.4534 13.9178 38.5522 13.9848 38.661 14.03C38.7698 14.0753 38.8863 14.0978 39.0038 14.0963H39.1035C39.235 14.0805 39.3613 14.0346 39.473 13.9621C39.5848 13.8895 39.679 13.7922 39.7487 13.6772L43.5728 7.43282C43.6791 7.25856 43.7236 7.05242 43.6991 6.84872C43.6745 6.64501 43.5824 6.45604 43.4379 6.31325L40.7634 3.58319C40.6224 3.43909 40.4377 3.34816 40.2395 3.32531C40.0413 3.30247 39.8413 3.34907 39.6724 3.45746L33.555 7.36097C33.4428 7.43239 33.3479 7.52868 33.2772 7.64269C33.2065 7.7567 33.1619 7.88551 33.1467 8.01953C33.1315 8.15356 33.1461 8.28936 33.1893 8.41685C33.2326 8.54434 33.3035 8.66024 33.3966 8.75594L35.2618 10.6598L25.0269 21.1071L17.2144 12.851C17.8936 11.2635 18.1187 9.51221 17.8638 7.79958C17.6089 6.08694 16.8844 4.4829 15.774 3.17288C14.6636 1.86285 13.2127 0.900347 11.589 0.396614C9.96527 -0.107119 8.23503 -0.131508 6.5983 0.326268C6.45099 0.367586 6.31676 0.447348 6.20881 0.557702C6.10087 0.668056 6.02294 0.805199 5.9827 0.955632C5.94245 1.10607 5.94127 1.2646 5.97928 1.41564C6.01729 1.56668 6.09317 1.70501 6.19946 1.81703L9.85938 5.71455L8.90334 9.15108L5.52496 10.0192L1.87091 6.15759C1.76462 6.04564 1.63162 5.96386 1.48498 5.92029C1.33834 5.87672 1.18311 5.87287 1.03457 5.90912C0.886028 5.94536 0.74929 6.02046 0.637803 6.12701C0.526317 6.23356 0.443924 6.3679 0.39873 6.51681C-0.0751811 8.09045 -0.12766 9.76492 0.246745 11.3663C0.621149 12.9676 1.40878 14.4374 2.52782 15.623C3.75745 16.9268 5.33916 17.8279 7.07182 18.2117C8.80448 18.5955 10.6098 18.4446 12.2583 17.7783L19.8479 25.7949L15.1557 30.5845L13.9005 29.3033C13.7356 29.1351 13.512 29.0406 13.2788 29.0406C13.0457 29.0406 12.8221 29.1351 12.6571 29.3033L0.551226 41.6365C0.386471 41.8048 0.293929 42.0331 0.293929 42.2711C0.293929 42.5091 0.386471 42.7373 0.551226 42.9057L4.30499 46.7374C4.46995 46.9055 4.69356 47 4.9267 47C5.15985 47 5.38346 46.9055 5.54842 46.7374L17.6308 34.4521C17.7956 34.2837 17.8881 34.0554 17.8881 33.8175C17.8881 33.5795 17.7956 33.3512 17.6308 33.1828L16.3757 31.8777L21.0679 27.0881L38.0771 45.049C38.3915 45.3841 38.7682 45.652 39.1851 45.837C39.602 46.0221 40.0508 46.1205 40.5053 46.1267H40.564C41.463 46.1285 42.3267 45.7694 42.9687 45.1269C43.6204 44.4693 43.9911 43.5755 43.9998 42.6402C44.0086 41.7048 43.6549 40.8039 43.0156 40.1337ZM40.0126 5.35533L41.7018 7.07959L38.8337 11.7614L35.426 8.28297L40.0126 5.35533ZM4.9267 44.8694L2.41638 42.295L13.2554 31.2311L15.7657 33.7935L4.9267 44.8694ZM41.7136 43.8516C41.3919 44.1707 40.9597 44.3472 40.5112 44.3426C40.0673 44.3324 39.6454 44.1429 39.3381 43.8157L13.097 16.072C12.9678 15.9371 12.8002 15.8471 12.6181 15.8148C12.4359 15.7826 12.2485 15.8098 12.0823 15.8924C10.7213 16.5563 9.19015 16.7661 7.70582 16.4921C6.2215 16.218 4.85931 15.4741 3.81231 14.3657C3.09987 13.611 2.55222 12.7106 2.20546 11.7241C1.85869 10.7375 1.72068 9.68714 1.80052 8.64219L4.63344 11.6357C4.74138 11.7495 4.87692 11.8322 5.02628 11.8753C5.17565 11.9184 5.33353 11.9204 5.4839 11.8811L9.84765 10.7616C9.99474 10.7258 10.1303 10.6519 10.2413 10.547C10.3522 10.4421 10.4348 10.3098 10.4811 10.1629L11.7128 5.73251C11.755 5.5816 11.7577 5.42203 11.7206 5.26971C11.6836 5.1174 11.6081 4.97765 11.5016 4.8644L8.66287 1.87091C9.93079 1.81414 11.191 2.0987 12.3172 2.69603C13.4434 3.29336 14.3959 4.18246 15.0792 5.27416C15.7625 6.36587 16.1526 7.62178 16.2103 8.91592C16.2679 10.2101 15.9912 11.4969 15.4079 12.6475C15.3284 12.8095 15.2987 12.9922 15.3228 13.1717C15.3468 13.3512 15.4235 13.5191 15.5428 13.6533L41.7487 41.379C42.0618 41.7111 42.2337 42.1559 42.2271 42.6167C42.2206 43.0775 42.036 43.5171 41.7136 43.8397V43.8516Z" fill="#FF900E"/>
</svg>
