<svg width="600" height="569" viewBox="0 0 600 569" fill="none" xmlns="http://www.w3.org/2000/svg">
<g opacity="0.1">
<path d="M383.58 210.912C402.436 204.731 412.71 184.435 406.529 165.58C400.348 146.725 380.052 136.45 361.197 142.631C342.341 148.812 332.067 169.108 338.248 187.964C344.429 206.819 364.725 217.093 383.58 210.912Z" fill="#B6B6B6"/>
<path d="M361.076 186.509C361.449 189.245 362.801 191.753 364.881 193.569C366.962 195.384 369.63 196.385 372.391 196.385C375.152 196.385 377.82 195.384 379.901 193.569C381.981 191.753 383.333 189.245 383.706 186.509H361.076Z" fill="white"/>
<path d="M363.005 173.987C363.005 174.857 362.747 175.707 362.264 176.43C361.781 177.152 361.094 177.716 360.29 178.048C359.487 178.38 358.603 178.467 357.75 178.296C356.898 178.126 356.115 177.706 355.501 177.091C354.886 176.475 354.469 175.691 354.3 174.838C354.132 173.985 354.221 173.101 354.555 172.299C354.889 171.496 355.454 170.81 356.178 170.329C356.902 169.847 357.752 169.591 358.622 169.593C359.785 169.596 360.9 170.06 361.722 170.884C362.544 171.708 363.005 172.824 363.005 173.987Z" fill="white"/>
<path d="M390.555 173.987C390.555 174.856 390.297 175.706 389.814 176.428C389.331 177.151 388.645 177.714 387.842 178.047C387.039 178.379 386.156 178.466 385.303 178.297C384.451 178.127 383.668 177.709 383.053 177.094C382.439 176.48 382.02 175.697 381.851 174.845C381.681 173.992 381.768 173.109 382.101 172.306C382.434 171.503 382.997 170.817 383.719 170.334C384.442 169.851 385.291 169.593 386.16 169.593C387.325 169.596 388.441 170.06 389.264 170.883C390.088 171.707 390.552 172.823 390.555 173.987Z" fill="white"/>
<path d="M186.419 519.339C195.457 504.392 190.667 484.947 175.719 475.909C160.771 466.871 141.327 471.661 132.288 486.609C123.25 501.557 128.041 521.001 142.989 530.04C157.936 539.078 177.381 534.287 186.419 519.339Z" fill="#B6B6B6"/>
<path d="M145.905 511.898C146.227 514.299 147.41 516.501 149.234 518.096C151.057 519.691 153.398 520.57 155.82 520.57C158.243 520.57 160.583 519.691 162.406 518.096C164.23 516.501 165.413 514.299 165.736 511.898H145.905Z" fill="white"/>
<path d="M147.604 500.928C147.604 501.689 147.378 502.434 146.955 503.067C146.532 503.699 145.931 504.193 145.228 504.484C144.525 504.775 143.751 504.852 143.004 504.703C142.258 504.555 141.572 504.188 141.034 503.65C140.495 503.111 140.129 502.426 139.98 501.679C139.832 500.933 139.908 500.159 140.199 499.455C140.491 498.752 140.984 498.151 141.617 497.728C142.25 497.305 142.994 497.08 143.755 497.08C144.776 497.08 145.755 497.485 146.476 498.207C147.198 498.929 147.604 499.908 147.604 500.928Z" fill="white"/>
<path d="M171.734 500.928C171.734 501.689 171.508 502.434 171.085 503.067C170.663 503.699 170.061 504.193 169.358 504.484C168.655 504.775 167.881 504.852 167.135 504.703C166.388 504.555 165.702 504.188 165.164 503.65C164.626 503.111 164.259 502.426 164.111 501.679C163.962 500.933 164.038 500.159 164.33 499.455C164.621 498.752 165.114 498.151 165.747 497.728C166.38 497.305 167.124 497.08 167.885 497.08C168.906 497.08 169.885 497.485 170.607 498.207C171.329 498.929 171.734 499.908 171.734 500.928Z" fill="white"/>
<path d="M109.872 157.088C112.57 145.763 105.577 134.396 94.2521 131.698C82.9276 129 71.5602 135.994 68.8623 147.318C66.1644 158.643 73.1577 170.01 84.4822 172.708C95.8068 175.406 107.174 168.413 109.872 157.088Z" fill="#B6B6B6"/>
<path d="M82.7314 157.901C82.944 159.51 83.7339 160.986 84.9542 162.056C86.1744 163.125 87.7417 163.715 89.3644 163.715C90.987 163.715 92.5543 163.125 93.7746 162.056C94.9948 160.986 95.7848 159.51 95.9974 157.901H82.7314Z" fill="white"/>
<path d="M83.864 150.549C83.866 151.06 83.7165 151.559 83.4343 151.985C83.1521 152.411 82.7499 152.743 82.2787 152.94C81.8075 153.137 81.2884 153.189 80.7873 153.091C80.2862 152.993 79.8256 152.748 79.4637 152.387C79.1019 152.027 78.8551 151.567 78.7548 151.067C78.6544 150.566 78.7048 150.047 78.8998 149.575C79.0947 149.103 79.4254 148.699 79.8498 148.415C80.2743 148.131 80.7735 147.98 81.2842 147.98C81.9666 147.98 82.6212 148.25 83.1047 148.732C83.5882 149.213 83.8612 149.867 83.864 150.549Z" fill="white"/>
<path d="M100.014 150.549C100.016 151.06 99.8663 151.56 99.5836 151.986C99.3009 152.412 98.8981 152.744 98.4263 152.941C97.9545 153.137 97.4349 153.189 96.9335 153.09C96.4321 152.991 95.9715 152.745 95.61 152.384C95.2486 152.022 95.0027 151.562 94.9035 151.06C94.8043 150.559 94.8563 150.039 95.0528 149.567C95.2494 149.096 95.5817 148.693 96.0075 148.41C96.4333 148.127 96.9336 147.978 97.4447 147.98C98.1253 147.983 98.7772 148.254 99.2584 148.735C99.7396 149.217 100.011 149.868 100.014 150.549Z" fill="white"/>
<path d="M554.602 119.739C566.243 119.739 575.68 110.301 575.68 98.66C575.68 87.0186 566.243 77.5813 554.602 77.5813C542.96 77.5813 533.523 87.0186 533.523 98.66C533.523 110.301 542.96 119.739 554.602 119.739Z" fill="#B6B6B6"/>
<path d="M547.964 104.365C548.185 105.968 548.979 107.437 550.199 108.501C551.419 109.564 552.983 110.15 554.602 110.15C556.22 110.15 557.784 109.564 559.004 108.501C560.225 107.437 561.019 105.968 561.24 104.365H547.964Z" fill="white"/>
<path d="M549.148 97.0134C549.151 97.5241 549.001 98.0239 548.719 98.4495C548.437 98.8751 548.034 99.2074 547.563 99.4043C547.092 99.6011 546.573 99.6537 546.072 99.5554C545.571 99.457 545.11 99.2121 544.748 98.8518C544.386 98.4914 544.14 98.0317 544.039 97.531C543.939 97.0303 543.989 96.5111 544.184 96.0391C544.379 95.5671 544.71 95.1635 545.134 94.8796C545.559 94.5957 546.058 94.4441 546.569 94.4441C547.251 94.4441 547.906 94.7144 548.389 95.196C548.873 95.6775 549.146 96.331 549.148 97.0134Z" fill="white"/>
<path d="M565.256 97.0136C565.254 97.5234 565.101 98.0211 564.816 98.444C564.532 98.8669 564.128 99.1959 563.656 99.3895C563.185 99.5832 562.667 99.6328 562.167 99.5321C561.667 99.4313 561.208 99.1848 560.849 98.8236C560.489 98.4624 560.244 98.0027 560.146 97.5026C560.047 97.0024 560.099 96.4843 560.294 96.0135C560.49 95.5427 560.82 95.1404 561.244 94.8574C561.668 94.5744 562.167 94.4233 562.677 94.4233C563.016 94.4233 563.352 94.4904 563.666 94.6207C563.98 94.751 564.265 94.942 564.504 95.1826C564.744 95.4233 564.934 95.7089 565.063 96.0232C565.192 96.3374 565.258 96.674 565.256 97.0136Z" fill="white"/>
<path d="M259.29 0.795898H168.913C156.939 0.83186 145.467 5.60429 137 14.0709C128.533 22.5376 123.761 34.0105 123.725 45.9841V108.318C123.761 120.292 128.533 131.765 137 140.232C145.467 148.698 156.939 153.471 168.913 153.507H196.022L214.101 184.831L232.191 153.507H259.29C271.264 153.471 282.738 148.699 291.206 140.232C299.675 131.766 304.449 120.293 304.488 108.318V45.9841C304.452 34.0087 299.678 22.5342 291.209 14.0673C282.741 5.60031 271.265 0.829094 259.29 0.795898Z" fill="#B6B6B6"/>
<path d="M167.623 90.5323C173.143 90.5323 177.617 86.0578 177.617 80.5382C177.617 75.0187 173.143 70.5442 167.623 70.5442C162.104 70.5442 157.629 75.0187 157.629 80.5382C157.629 86.0578 162.104 90.5323 167.623 90.5323Z" fill="white"/>
<path d="M213.168 90.5323C218.688 90.5323 223.162 86.0578 223.162 80.5382C223.162 75.0187 218.688 70.5442 213.168 70.5442C207.648 70.5442 203.174 75.0187 203.174 80.5382C203.174 86.0578 207.648 90.5323 213.168 90.5323Z" fill="white"/>
<path d="M258.723 90.5323C264.243 90.5323 268.717 86.0578 268.717 80.5382C268.717 75.0187 264.243 70.5442 258.723 70.5442C253.204 70.5442 248.729 75.0187 248.729 80.5382C248.729 86.0578 253.204 90.5323 258.723 90.5323Z" fill="white"/>
<path d="M46.4676 166.207H15.4892C11.3855 166.221 7.45375 167.857 4.55195 170.759C1.65015 173.661 0.0138221 177.592 0 181.696V203.058C0.0110711 207.162 1.64653 211.096 4.54892 213.998C7.45131 216.901 11.3846 218.536 15.4892 218.547H24.8016L30.9994 229.286L37.2077 218.547H46.4886C50.595 218.539 54.531 216.905 57.4357 214.002C60.3403 211.099 61.9772 207.164 61.9883 203.058V181.696C61.9744 177.587 60.3338 173.65 57.4252 170.748C54.5166 167.845 50.5768 166.212 46.4676 166.207Z" fill="#B6B6B6"/>
<path d="M15.0486 196.964C16.9425 196.964 18.4778 195.429 18.4778 193.535C18.4778 191.641 16.9425 190.106 15.0486 190.106C13.1547 190.106 11.6194 191.641 11.6194 193.535C11.6194 195.429 13.1547 196.964 15.0486 196.964Z" fill="white"/>
<path d="M34.0929 193.536C34.095 194.214 33.8956 194.878 33.5201 195.444C33.1445 196.009 32.6097 196.45 31.9833 196.711C31.3568 196.973 30.667 197.042 30.0011 196.911C29.3352 196.78 28.7232 196.454 28.2426 195.975C27.762 195.496 27.4343 194.885 27.3011 194.219C27.168 193.554 27.2353 192.864 27.4945 192.236C27.7537 191.609 28.1933 191.073 28.7574 190.696C29.3216 190.318 29.985 190.117 30.6637 190.117C31.5714 190.117 32.442 190.477 33.0848 191.118C33.7276 191.758 34.0901 192.628 34.0929 193.536Z" fill="white"/>
<path d="M46.2789 196.964C48.1728 196.964 49.7082 195.429 49.7082 193.535C49.7082 191.641 48.1728 190.106 46.2789 190.106C44.385 190.106 42.8497 191.641 42.8497 193.535C42.8497 195.429 44.385 196.964 46.2789 196.964Z" fill="white"/>
<path d="M290.624 174.984L295.994 185.848C296.36 186.593 296.901 187.236 297.572 187.724C298.243 188.212 299.022 188.529 299.842 188.648L311.84 190.389C312.783 190.526 313.67 190.924 314.4 191.538C315.129 192.152 315.672 192.959 315.966 193.866C316.261 194.773 316.296 195.744 316.067 196.67C315.838 197.596 315.354 198.439 314.671 199.104L305.988 207.577C305.397 208.156 304.954 208.87 304.699 209.657C304.443 210.444 304.382 211.281 304.52 212.097L306.617 224.052C306.778 224.992 306.672 225.958 306.313 226.84C305.953 227.723 305.354 228.487 304.582 229.047C303.811 229.607 302.898 229.94 301.948 230.008C300.997 230.076 300.046 229.876 299.203 229.432L288.464 223.79C287.731 223.408 286.916 223.208 286.089 223.208C285.262 223.208 284.447 223.408 283.714 223.79L272.975 229.432C272.132 229.876 271.181 230.076 270.23 230.008C269.279 229.94 268.367 229.607 267.595 229.047C266.824 228.487 266.224 227.723 265.865 226.84C265.505 225.958 265.4 224.992 265.561 224.052L267.658 212.097C267.797 211.28 267.735 210.442 267.477 209.655C267.219 208.867 266.774 208.154 266.179 207.577L257.496 199.104C256.813 198.439 256.329 197.596 256.1 196.67C255.871 195.744 255.906 194.773 256.201 193.866C256.496 192.959 257.038 192.152 257.768 191.538C258.497 190.924 259.384 190.526 260.328 190.389L272.293 188.648C273.114 188.529 273.893 188.212 274.564 187.724C275.234 187.236 275.776 186.593 276.142 185.848L281.501 174.984C281.926 174.139 282.578 173.429 283.384 172.932C284.189 172.436 285.117 172.173 286.063 172.173C287.009 172.173 287.936 172.436 288.742 172.932C289.547 173.429 290.199 174.139 290.624 174.984Z" fill="#B6B6B6"/>
<path d="M480.029 469.855L484.601 479.126C484.917 479.757 485.38 480.303 485.952 480.717C486.523 481.132 487.186 481.402 487.884 481.506L498.109 482.996C498.913 483.11 499.67 483.449 500.292 483.971C500.915 484.494 501.378 485.181 501.631 485.954C501.883 486.727 501.913 487.555 501.719 488.344C501.525 489.134 501.113 489.853 500.531 490.42L493.127 497.635C492.621 498.129 492.242 498.738 492.023 499.41C491.804 500.082 491.751 500.797 491.869 501.494L493.62 511.677C493.751 512.474 493.659 513.292 493.353 514.039C493.047 514.787 492.54 515.435 491.888 515.911C491.236 516.387 490.464 516.673 489.659 516.736C488.854 516.8 488.047 516.639 487.328 516.271L478.183 511.468C477.558 511.137 476.861 510.964 476.154 510.964C475.447 510.964 474.75 511.137 474.125 511.468L464.98 516.271C464.261 516.639 463.454 516.8 462.649 516.736C461.844 516.673 461.073 516.387 460.42 515.911C459.768 515.435 459.261 514.787 458.955 514.039C458.649 513.292 458.557 512.474 458.688 511.677L460.439 501.494C460.557 500.797 460.504 500.082 460.285 499.41C460.066 498.738 459.687 498.129 459.181 497.635L451.777 490.42C451.195 489.853 450.784 489.134 450.589 488.344C450.395 487.555 450.425 486.727 450.678 485.954C450.93 485.181 451.393 484.494 452.016 483.971C452.638 483.449 453.395 483.11 454.2 482.996L464.424 481.506C465.123 481.402 465.785 481.132 466.357 480.717C466.928 480.303 467.391 479.757 467.707 479.126L472.279 469.855C472.644 469.142 473.199 468.543 473.883 468.124C474.567 467.706 475.353 467.485 476.154 467.485C476.956 467.485 477.742 467.706 478.425 468.124C479.109 468.543 479.664 469.142 480.029 469.855Z" fill="#B6B6B6"/>
<path d="M490.558 224.734H458.174C453.886 224.751 449.778 226.462 446.747 229.496C443.716 232.529 442.007 236.638 441.993 240.926V263.263C442.007 267.551 443.716 271.66 446.747 274.694C449.778 277.727 453.886 279.438 458.174 279.455H467.885L474.366 290.676L480.847 279.455H490.558C494.846 279.438 498.954 277.727 501.985 274.694C505.017 271.66 506.725 267.551 506.739 263.263V240.926C506.725 236.638 505.017 232.529 501.985 229.496C498.954 226.462 494.846 224.751 490.558 224.734ZM484.685 257.023L478.162 260.788L471.64 264.553C471.001 264.921 470.277 265.115 469.541 265.115C468.804 265.115 468.08 264.92 467.442 264.551C466.804 264.183 466.275 263.652 465.907 263.014C465.539 262.375 465.346 261.651 465.347 260.914V245.855C465.346 245.118 465.539 244.394 465.907 243.755C466.275 243.117 466.804 242.586 467.442 242.217C468.08 241.848 468.804 241.654 469.541 241.654C470.277 241.654 471.001 241.847 471.64 242.216L478.162 245.981L484.685 249.745C485.326 250.113 485.858 250.643 486.228 251.282C486.598 251.921 486.793 252.646 486.793 253.384C486.793 254.123 486.598 254.848 486.228 255.487C485.858 256.126 485.326 256.656 484.685 257.023Z" fill="#B6B6B6"/>
<path d="M454.231 5.51514H348.523C340.504 5.551 332.824 8.75227 327.154 14.4223C321.484 20.0924 318.283 27.7723 318.247 35.7909V77.5604C318.283 85.579 321.484 93.2589 327.154 98.929C332.824 104.599 340.504 107.8 348.523 107.836H390.88L403.003 128.81L415.115 107.836H454.231C462.252 107.803 469.934 104.603 475.607 98.9327C481.279 93.2623 484.482 85.5808 484.517 77.5604V35.7909C484.482 27.7705 481.279 20.089 475.607 14.4186C469.934 8.7483 462.252 5.54824 454.231 5.51514Z" fill="#B6B6B6"/>
<path d="M420.824 69.7024H416.539V41.2976L407.947 44.4537V40.5835L420.156 35.9991H420.824V69.7024ZM454.343 55.3963C454.343 60.3877 453.491 64.0967 451.786 66.5233C450.081 68.9498 447.417 70.1631 443.792 70.1631C440.214 70.1631 437.565 68.9806 435.845 66.6154C434.124 64.2349 433.234 60.6872 433.172 55.9723V50.2821C433.172 45.3522 434.025 41.6893 435.729 39.2934C437.434 36.8975 440.106 35.6996 443.746 35.6996C447.355 35.6996 450.012 36.8592 451.717 39.1782C453.422 41.4819 454.297 45.045 454.343 49.8674V55.3963ZM450.081 49.568C450.081 45.9588 449.575 43.3326 448.561 41.6893C447.547 40.0306 445.942 39.2013 443.746 39.2013C441.565 39.2013 439.976 40.0229 438.978 41.6662C437.979 43.3095 437.465 45.8359 437.434 49.2454V56.0644C437.434 59.6889 437.956 62.3689 439.001 64.1044C440.06 65.8245 441.658 66.6845 443.792 66.6845C445.896 66.6845 447.455 65.8706 448.469 64.2426C449.498 62.6146 450.035 60.0498 450.081 56.5482V49.568Z" fill="white"/>
<path d="M379.278 56.7879C387.822 53.2892 391.911 43.5272 388.412 34.9837C384.914 26.4402 375.152 22.3507 366.608 25.8494C358.065 29.3481 353.975 39.1102 357.474 47.6536C360.973 56.1971 370.735 60.2866 379.278 56.7879Z" fill="white"/>
<path d="M372.968 64.1682C361.432 64.1682 351.659 68.7405 347.684 75.2005C347.296 75.8375 347.085 76.5664 347.073 77.3121C347.06 78.0578 347.247 78.7933 347.614 79.4429C347.98 80.0925 348.513 80.6326 349.158 81.0076C349.802 81.3826 350.535 81.579 351.281 81.5765H394.655C395.4 81.5772 396.132 81.3794 396.775 81.0036C397.418 80.6278 397.949 80.0875 398.315 79.4383C398.68 78.7891 398.865 78.0543 398.853 77.3095C398.84 76.5647 398.629 75.8367 398.242 75.2005C394.246 68.7405 384.42 64.1682 372.968 64.1682Z" fill="white"/>
<path d="M402.331 448.19H299.455C291.643 448.212 284.158 451.325 278.634 456.848C273.111 462.372 269.998 469.857 269.976 477.668V518.326C270.001 526.136 273.115 533.618 278.638 539.14C284.161 544.661 291.645 547.772 299.455 547.795H340.679L352.477 568.223L364.274 547.795H402.331C410.141 547.772 417.625 544.661 423.148 539.14C428.671 533.618 431.785 526.136 431.81 518.326V477.668C431.788 469.857 428.675 462.372 423.152 456.848C417.628 451.325 410.143 448.212 402.331 448.19Z" fill="#B6B6B6"/>
<path d="M354.69 510.147L355.124 505.893H359.495V506.895H356.044L355.786 509.221C356.204 508.975 356.679 508.852 357.21 508.852C357.987 508.852 358.604 509.11 359.061 509.625C359.518 510.137 359.747 510.831 359.747 511.706C359.747 512.584 359.509 513.278 359.032 513.786C358.559 514.29 357.897 514.542 357.046 514.542C356.292 514.542 355.677 514.333 355.2 513.915C354.723 513.497 354.452 512.918 354.386 512.18H355.411C355.477 512.668 355.651 513.038 355.932 513.288C356.214 513.534 356.585 513.657 357.046 513.657C357.55 513.657 357.944 513.485 358.229 513.141C358.518 512.797 358.663 512.323 358.663 511.717C358.663 511.147 358.507 510.69 358.194 510.346C357.886 509.999 357.473 509.825 356.958 509.825C356.485 509.825 356.114 509.928 355.845 510.135L355.557 510.37L354.69 510.147ZM366.28 510.786C366.28 512.055 366.063 512.999 365.63 513.616C365.196 514.233 364.518 514.542 363.596 514.542C362.686 514.542 362.013 514.241 361.575 513.639C361.138 513.034 360.911 512.131 360.895 510.932V509.485C360.895 508.231 361.112 507.299 361.546 506.69C361.979 506.081 362.659 505.776 363.585 505.776C364.503 505.776 365.179 506.071 365.612 506.661C366.046 507.247 366.268 508.153 366.28 509.379V510.786ZM365.196 509.303C365.196 508.385 365.067 507.717 364.809 507.299C364.552 506.877 364.143 506.667 363.585 506.667C363.03 506.667 362.626 506.875 362.372 507.293C362.118 507.711 361.987 508.354 361.979 509.221V510.956C361.979 511.877 362.112 512.559 362.378 513C362.647 513.438 363.054 513.657 363.596 513.657C364.132 513.657 364.528 513.45 364.786 513.036C365.048 512.622 365.184 511.969 365.196 511.079V509.303Z" fill="white"/>
<path d="M334.712 494.532C341.064 488.18 341.064 477.882 334.712 471.53C328.36 465.178 318.061 465.178 311.709 471.53C305.357 477.882 305.357 488.18 311.709 494.532C318.061 500.884 328.36 500.884 334.712 494.532Z" fill="white"/>
<path d="M323.207 505.281C312.028 505.281 302.464 509.737 298.605 516.019C298.226 516.638 298.019 517.347 298.006 518.073C297.993 518.799 298.174 519.515 298.529 520.148C298.885 520.781 299.404 521.307 300.031 521.672C300.658 522.038 301.371 522.23 302.097 522.227H344.318C345.046 522.23 345.761 522.038 346.39 521.67C347.019 521.303 347.538 520.774 347.893 520.138C348.249 519.503 348.427 518.783 348.411 518.055C348.394 517.327 348.183 516.617 347.799 515.998C343.951 509.706 334.386 505.281 323.207 505.281Z" fill="white"/>
<path d="M240.436 265.158C250.415 261.673 255.68 250.759 252.195 240.779C248.71 230.8 237.795 225.536 227.816 229.021C217.837 232.506 212.573 243.42 216.058 253.399C219.542 263.378 230.457 268.643 240.436 265.158Z" fill="#B6B6B6"/>
<path d="M234.11 273.299C220.96 273.299 209.707 278.543 205.156 285.936C204.701 286.666 204.451 287.505 204.432 288.365C204.412 289.225 204.624 290.075 205.046 290.825C205.467 291.575 206.082 292.199 206.826 292.63C207.571 293.061 208.417 293.285 209.277 293.277H258.954C259.813 293.283 260.659 293.058 261.402 292.626C262.145 292.194 262.758 291.57 263.178 290.821C263.598 290.071 263.809 289.222 263.789 288.363C263.769 287.504 263.519 286.665 263.065 285.936C258.514 278.532 247.272 273.299 234.11 273.299Z" fill="#B6B6B6"/>
<path d="M308.365 262.219C310.034 255.109 305.623 247.992 298.513 246.323C291.403 244.654 284.286 249.065 282.617 256.175C280.948 263.286 285.359 270.403 292.469 272.072C299.579 273.741 306.696 269.33 308.365 262.219Z" fill="#B6B6B6"/>
<path d="M295.49 277.284C286.409 277.284 278.638 280.902 275.492 286.009C275.187 286.513 275.022 287.089 275.013 287.678C275.004 288.267 275.151 288.848 275.44 289.361C275.729 289.874 276.15 290.301 276.658 290.599C277.167 290.896 277.745 291.053 278.334 291.054H312.647C313.236 291.053 313.814 290.896 314.323 290.599C314.831 290.301 315.251 289.874 315.54 289.361C315.829 288.848 315.977 288.267 315.968 287.678C315.959 287.089 315.794 286.513 315.489 286.009C312.343 280.902 304.572 277.284 295.49 277.284Z" fill="#B6B6B6"/>
<path d="M49.17 267.108C50.7029 257.716 44.3322 248.86 34.9405 247.327C25.5489 245.794 16.6929 252.165 15.16 261.557C13.6271 270.948 19.9979 279.804 29.3895 281.337C38.7811 282.87 47.6372 276.499 49.17 267.108Z" fill="#B6B6B6"/>
<path d="M32.1424 287.865C20.3026 287.865 10.1827 292.574 6.09281 299.233C5.69144 299.889 5.47248 300.641 5.45853 301.41C5.44459 302.179 5.63618 302.937 6.0135 303.608C6.39082 304.278 6.94021 304.835 7.60492 305.222C8.26963 305.609 9.02558 305.812 9.79469 305.809H54.5005C55.2683 305.808 56.0222 305.604 56.685 305.216C57.3477 304.828 57.8955 304.271 58.2722 303.602C58.6488 302.933 58.8409 302.176 58.8286 301.408C58.8164 300.641 58.6003 299.89 58.2024 299.233C54.1649 292.627 43.9926 287.865 32.1424 287.865Z" fill="#B6B6B6"/>
<path d="M247.042 508.483C248.724 498.048 241.629 488.224 231.194 486.541C220.759 484.859 210.935 491.954 209.252 502.389C207.57 512.825 214.665 522.648 225.1 524.331C235.535 526.013 245.359 518.918 247.042 508.483Z" fill="#B6B6B6"/>
<path d="M228.175 531.729C215.014 531.729 203.761 536.972 199.22 544.313C198.766 545.043 198.516 545.881 198.496 546.74C198.477 547.599 198.688 548.448 199.107 549.198C199.527 549.948 200.141 550.571 200.884 551.003C201.627 551.435 202.472 551.66 203.331 551.654H253.008C253.867 551.659 254.711 551.433 255.454 551.001C256.196 550.569 256.809 549.946 257.23 549.197C257.65 548.448 257.863 547.6 257.845 546.742C257.827 545.883 257.58 545.044 257.129 544.313C252.578 536.972 241.325 531.729 228.175 531.729Z" fill="#B6B6B6"/>
<path d="M387.545 344.012C387.545 345.334 387.805 346.644 388.311 347.865C388.817 349.086 389.559 350.196 390.493 351.131C391.428 352.066 392.538 352.807 393.76 353.313C394.981 353.819 396.29 354.08 397.612 354.08C398.934 354.08 400.243 353.819 401.465 353.313C402.686 352.807 403.796 352.066 404.731 351.131C405.666 350.196 406.407 349.086 406.913 347.865C407.419 346.644 407.68 345.334 407.68 344.012C407.66 326.927 400.865 310.547 388.784 298.466C376.703 286.385 360.323 279.589 343.238 279.57C340.567 279.57 338.007 280.631 336.119 282.519C334.231 284.407 333.17 286.967 333.17 289.638C333.17 292.308 334.231 294.868 336.119 296.756C338.007 298.644 340.567 299.705 343.238 299.705C354.984 299.719 366.246 304.391 374.552 312.698C382.858 321.004 387.531 332.266 387.545 344.012Z" fill="#B6B6B6"/>
<path d="M437.987 354.059C440.66 354.059 443.223 352.997 445.113 351.107C447.003 349.217 448.065 346.654 448.065 343.981C448.043 316.195 436.994 289.554 417.346 269.908C397.697 250.261 371.055 239.215 343.269 239.196C340.599 239.196 338.038 240.257 336.15 242.145C334.262 244.033 333.202 246.593 333.202 249.263C333.202 251.933 334.262 254.494 336.15 256.382C338.038 258.27 340.599 259.331 343.269 259.331C365.712 259.364 387.225 268.299 403.089 284.174C418.953 300.05 427.871 321.57 427.888 344.013C427.891 345.336 428.154 346.645 428.663 347.866C429.173 349.087 429.917 350.196 430.855 351.129C431.793 352.062 432.906 352.801 434.13 353.304C435.353 353.807 436.664 354.063 437.987 354.059Z" fill="#B6B6B6"/>
<path d="M330.569 337.489C330.567 341.421 331.731 345.264 333.914 348.534C336.097 351.804 339.2 354.353 342.832 355.858C346.464 357.363 350.46 357.758 354.316 356.991C358.172 356.225 361.714 354.332 364.494 351.552C367.274 348.772 369.167 345.23 369.933 341.374C370.7 337.518 370.305 333.522 368.8 329.89C367.294 326.258 364.746 323.155 361.476 320.972C358.206 318.789 354.363 317.625 350.431 317.627C345.169 317.644 340.126 319.742 336.405 323.463C332.684 327.184 330.586 332.227 330.569 337.489Z" fill="#B6B6B6"/>
<path d="M317.786 361.201H98.9023V313.328H317.786V361.201ZM99.951 360.152H316.737V314.376H99.951V360.152Z" fill="#B6B6B6"/>
<path d="M143.786 313.852H99.4267V360.676H143.786V313.852Z" fill="#B6B6B6"/>
<path d="M135.376 350.472L130.258 344.18C132.261 342.046 133.466 339.286 133.671 336.367C133.876 333.447 133.068 330.546 131.383 328.153C129.698 325.76 127.24 324.021 124.422 323.229C121.604 322.438 118.6 322.642 115.915 323.808C113.231 324.974 111.03 327.03 109.685 329.629C108.339 332.228 107.932 335.212 108.53 338.077C109.128 340.942 110.696 343.513 112.969 345.356C115.243 347.2 118.082 348.203 121.009 348.197C122.819 348.2 124.608 347.81 126.252 347.054L131.559 353.587L135.376 350.472ZM113.196 335.455C113.194 333.909 113.65 332.398 114.508 331.112C115.365 329.825 116.584 328.822 118.012 328.23C119.439 327.637 121.01 327.48 122.527 327.781C124.043 328.081 125.436 328.824 126.53 329.916C127.623 331.009 128.368 332.401 128.671 333.916C128.973 335.432 128.819 337.004 128.228 338.432C127.637 339.86 126.636 341.081 125.35 341.94C124.065 342.799 122.555 343.257 121.009 343.257C118.939 343.257 116.953 342.436 115.488 340.973C114.023 339.51 113.199 337.525 113.196 335.455Z" fill="white"/>
<path d="M116.153 458.551H144.804C148.591 458.551 151.662 455.48 151.662 451.693V393.899C151.662 390.111 148.591 387.041 144.804 387.041H116.153C112.365 387.041 109.295 390.111 109.295 393.899V451.693C109.295 455.48 112.365 458.551 116.153 458.551Z" fill="#B6B6B6"/>
<path d="M113.259 395.188H102.405C102.405 395.188 84.2835 382.877 83.5285 380.716C82.7734 378.556 76.2925 358.988 77.0161 354.646C77.0161 354.646 68.3224 351.028 61.81 359.722C55.2976 368.415 63.2572 393.028 65.428 397.37H25.5776C25.5776 397.37 15.4368 395.923 15.4368 404.616C15.4368 413.31 19.7889 417.651 24.875 417.651C24.875 417.651 23.4278 432.857 33.5687 432.857C33.5687 432.857 32.111 445.893 42.2519 445.893C42.2519 445.893 41.5283 457.481 48.7747 457.481C48.7747 457.481 68.3224 461.099 96.5637 457.481L113.941 448.777L113.259 395.188Z" stroke="#B6B6B6" stroke-width="7" stroke-linecap="round" stroke-linejoin="round"/>
<path d="M462.61 132.386H434.411C430.675 132.386 427.647 135.414 427.647 139.15V196.073C427.647 199.809 430.675 202.837 434.411 202.837H462.61C466.346 202.837 469.374 199.809 469.374 196.073V139.15C469.374 135.414 466.346 132.386 462.61 132.386Z" fill="#B6B6B6"/>
<path d="M506.467 207.106C498.09 207.097 489.722 206.558 481.414 205.491C480.997 205.437 480.593 205.313 480.218 205.123L463.093 196.566C462.458 196.253 461.925 195.767 461.554 195.164C461.183 194.561 460.989 193.866 460.996 193.158L461.709 140.367C461.722 139.383 462.123 138.444 462.824 137.753C463.524 137.062 464.469 136.675 465.452 136.675H474.996C481.906 131.946 489.677 126.272 491.303 124.489C495.613 111.517 497.595 102.897 497.427 101.072C497.288 100.24 497.435 99.3857 497.844 98.6484C498.254 97.911 498.902 97.3347 499.682 97.0136C501.513 96.3132 503.458 95.9576 505.418 95.965C509.183 95.965 514.615 97.2234 519.051 103.201C525.343 111.59 520.981 129.565 517.908 138.794H551.466C552.059 138.733 552.654 138.705 553.249 138.71C560.758 138.71 565.424 142.904 565.424 149.669C565.424 158.866 561.23 163.983 556.206 165.651C556.07 169.08 555.294 174.229 552.148 177.69C550.92 179.052 549.359 180.071 547.618 180.647C547.439 183.51 546.663 187.463 544.042 190.4C542.671 191.91 540.9 193.001 538.934 193.546C538.683 196.304 537.886 200.09 535.463 202.649C534.663 203.509 533.699 204.2 532.627 204.68C531.555 205.161 530.398 205.423 529.224 205.449C521.694 206.604 514.084 207.158 506.467 207.106ZM482.997 198.139C490.783 199.111 498.621 199.601 506.467 199.607C513.771 199.7 521.07 199.191 528.29 198.087C528.515 198.045 528.743 198.024 528.972 198.024C529.183 198.044 529.397 198.015 529.595 197.938C529.794 197.862 529.971 197.74 530.115 197.583C531.426 196.189 531.761 192.34 531.656 190.589C531.623 190.078 531.696 189.567 531.868 189.086C532.041 188.605 532.311 188.164 532.661 187.791C533.011 187.419 533.434 187.122 533.903 186.919C534.373 186.717 534.879 186.613 535.39 186.614C535.97 186.666 536.554 186.586 537.098 186.381C537.643 186.176 538.134 185.85 538.536 185.429C540.319 183.447 540.34 179.231 540.203 177.92C540.143 177.395 540.194 176.862 540.353 176.357C540.513 175.853 540.776 175.387 541.128 174.991C541.479 174.596 541.91 174.278 542.392 174.06C542.874 173.842 543.397 173.728 543.926 173.726C544.441 173.764 544.958 173.685 545.438 173.495C545.917 173.304 546.347 173.006 546.695 172.624C548.74 170.37 548.97 165.063 548.792 162.851C548.742 162.332 548.802 161.808 548.966 161.313C549.131 160.818 549.397 160.364 549.747 159.977C550.098 159.591 550.525 159.283 551.001 159.072C551.478 158.86 551.994 158.751 552.515 158.75C555.923 158.75 558.042 155.258 558.042 149.648C558.042 148.442 558.042 146.176 553.364 146.176C553.014 146.175 552.664 146.193 552.316 146.229C552.148 146.239 551.98 146.239 551.812 146.229H512.57C511.932 146.229 511.305 146.067 510.748 145.757C510.19 145.447 509.721 145 509.385 144.458C509.049 143.916 508.857 143.297 508.827 142.66C508.797 142.023 508.93 141.389 509.214 140.818C511.605 136.046 517.887 113.971 513.137 107.637C511.039 104.826 508.449 103.442 505.45 103.442C505.208 103.442 504.978 103.442 504.757 103.442C504.149 108.182 501.989 116.163 498.287 127.268C497.899 128.443 497.175 130.614 478.288 143.46C477.669 143.878 476.938 144.1 476.191 144.1H469.186L468.557 190.851L482.997 198.139Z" fill="#B6B6B6"/>
<path d="M163.554 191.008H97.9794C92.9495 191.022 88.1295 193.026 84.5728 196.583C81.0161 200.14 79.0119 204.96 78.998 209.989V265.203C79.0119 270.233 81.0161 275.053 84.5728 278.61C88.1295 282.166 92.9495 284.171 97.9794 284.184H163.554C168.584 284.171 173.404 282.166 176.961 278.61C180.517 275.053 182.522 270.233 182.536 265.203V209.989C182.522 204.96 180.517 200.14 176.961 196.583C173.404 193.026 168.584 191.022 163.554 191.008ZM146.45 215.977C144.869 215.502 143.225 215.269 141.574 215.285C136.603 215.285 134.516 219.155 134.516 223.927V226.412H144.353V237.549H134.705V275.029H119.499V237.549H113.133V226.412H119.499V224.524C119.499 218.662 121.292 212.202 125.665 208.228C129.44 204.641 134.705 203.351 139.088 203.351C141.803 203.304 144.511 203.639 147.132 204.347L146.45 215.977Z" fill="#B6B6B6"/>
<path d="M528.856 361.777H463.282C458.256 361.788 453.439 363.785 449.879 367.333C446.32 370.881 444.307 375.691 444.279 380.717V435.931C444.293 440.96 446.297 445.78 449.854 449.337C453.411 452.894 458.231 454.898 463.261 454.912H528.835C533.865 454.898 538.685 452.894 542.242 449.337C545.799 445.78 547.803 440.96 547.817 435.931V380.717C547.789 375.699 545.782 370.894 542.232 367.348C538.681 363.801 533.875 361.799 528.856 361.777ZM511.794 386.747C510.213 386.272 508.569 386.038 506.918 386.055C501.947 386.055 499.86 389.935 499.86 394.706V397.192H509.602V408.329H499.965V445.799H484.748V408.329H478.383V397.192H484.748V395.304C484.748 389.431 486.542 382.971 490.915 378.997C494.69 375.421 499.965 374.12 504.338 374.12C507.058 374.091 509.77 374.444 512.392 375.169L511.794 386.747Z" fill="#B6B6B6"/>
<path d="M229.905 385.645H186.804C181.093 385.662 175.621 387.938 171.584 391.976C167.546 396.014 165.27 401.485 165.253 407.196V436.916C165.27 442.626 167.546 448.098 171.584 452.136C175.621 456.174 181.093 458.45 186.804 458.467H199.724L208.323 473.41L216.943 458.467H229.874C235.584 458.45 241.056 456.174 245.094 452.136C249.132 448.098 251.408 442.626 251.424 436.916V407.196C251.408 401.491 249.136 396.024 245.105 391.987C241.074 387.95 235.61 385.67 229.905 385.645ZM211.029 434.86L203.205 423.618L181.707 428.956L206.635 412.335L213.483 423.094L234.54 416.278L211.029 434.86Z" fill="#B6B6B6"/>
<path d="M578.124 273.75H535.023C529.318 273.772 523.853 276.049 519.819 280.084C515.786 284.119 513.512 289.585 513.493 295.29V325.01C513.509 330.721 515.785 336.192 519.823 340.23C523.861 344.268 529.333 346.544 535.044 346.561H547.974L556.594 361.505L565.225 346.561H578.145C583.855 346.544 589.327 344.268 593.365 340.23C597.403 336.192 599.679 330.721 599.695 325.01V295.29C599.676 289.578 597.396 284.106 593.354 280.069C589.312 276.033 583.836 273.761 578.124 273.75ZM559.247 322.955L551.424 311.713L529.915 317.092L554.843 300.471L561.733 311.22L582.707 304.372L559.247 322.955Z" fill="#B6B6B6"/>
<path d="M274.202 403.977L274.38 404.124L294.935 420.2L315.416 404.029L315.594 403.882C316.902 402.85 317.994 401.569 318.808 400.114C319.621 398.659 320.14 397.058 320.335 395.403C320.53 393.748 320.396 392.07 319.943 390.466C319.489 388.862 318.724 387.363 317.691 386.055C316.658 384.746 315.378 383.654 313.923 382.841C312.468 382.027 310.867 381.509 309.212 381.314C307.556 381.119 305.879 381.252 304.275 381.706C302.671 382.159 301.172 382.924 299.864 383.957L294.84 387.921L289.807 383.989C288.51 382.855 286.996 381.998 285.358 381.469C283.719 380.94 281.99 380.75 280.276 380.911C278.561 381.072 276.898 381.581 275.386 382.406C273.875 383.231 272.548 384.355 271.485 385.71C270.422 387.065 269.647 388.622 269.206 390.287C268.765 391.951 268.668 393.688 268.92 395.392C269.172 397.095 269.769 398.729 270.673 400.194C271.578 401.66 272.771 402.925 274.181 403.914L274.202 403.977Z" fill="#B6B6B6"/>
<path d="M67.7981 101.04L67.9868 101.187L88.5412 117.264L109.022 101.093L109.2 100.946C111.843 98.86 113.548 95.8098 113.941 92.4665C114.335 89.1231 113.384 85.7604 111.298 83.1182C109.212 80.4759 106.162 78.7706 102.818 78.3772C99.475 77.9839 96.1123 78.9348 93.4701 81.0208L88.4573 84.9849L83.4131 81.0523C82.1167 79.9189 80.6031 79.0616 78.9645 78.5324C77.3259 78.0033 75.5967 77.8135 73.8823 77.9745C72.1679 78.1356 70.5043 78.6442 68.993 79.4694C67.4816 80.2945 66.1541 81.4188 65.0916 82.7738C64.029 84.1287 63.2536 85.6859 62.8125 87.3504C62.3715 89.0149 62.2742 90.7518 62.5264 92.4551C62.7787 94.1585 63.3753 95.7926 64.2798 97.2578C65.1844 98.723 66.3779 99.9886 67.7876 100.977L67.7981 101.04Z" fill="#B6B6B6"/>
<path d="M9.87862 350.514L10.0569 350.661L30.6113 366.737L51.0923 350.566L51.2706 350.42C52.5789 349.387 53.6709 348.106 54.4844 346.651C55.2978 345.196 55.8168 343.596 56.0115 341.94C56.2063 340.285 56.0731 338.607 55.6195 337.003C55.1659 335.399 54.4008 333.9 53.368 332.592C52.3351 331.283 51.0546 330.191 49.5997 329.378C48.1448 328.565 46.5439 328.046 44.8884 327.851C43.233 327.656 41.5554 327.789 39.9514 328.243C38.3474 328.696 36.8485 329.462 35.5402 330.494L30.5169 334.458L25.4832 330.515C24.1868 329.382 22.6732 328.525 21.0345 327.996C19.3959 327.466 17.6667 327.277 15.9524 327.438C14.238 327.599 12.5744 328.107 11.063 328.933C9.55167 329.758 8.22422 330.882 7.16164 332.237C6.09906 333.592 5.32362 335.149 4.88261 336.814C4.44159 338.478 4.34425 340.215 4.59652 341.918C4.84879 343.622 5.44538 345.256 6.34991 346.721C7.25444 348.186 8.44794 349.452 9.85765 350.441L9.87862 350.514Z" fill="#B6B6B6"/>
<path d="M417.716 392.672L402.814 381.042L390.229 371.258C389.655 370.807 388.964 370.527 388.238 370.45C387.511 370.373 386.777 370.502 386.121 370.823C385.464 371.143 384.911 371.642 384.525 372.263C384.139 372.883 383.935 373.6 383.937 374.33V383.863H383.717C375.495 385.142 347.652 391.739 335.897 423.336C335.691 423.905 335.685 424.527 335.879 425.101C336.073 425.674 336.456 426.164 336.965 426.492C337.474 426.82 338.079 426.965 338.681 426.904C339.283 426.843 339.847 426.58 340.28 426.157C348.586 418.029 363.456 407.28 383.937 406.861V417.127C383.939 417.856 384.145 418.57 384.532 419.188C384.919 419.806 385.471 420.303 386.127 420.623C386.782 420.943 387.513 421.073 388.238 420.998C388.964 420.923 389.653 420.647 390.229 420.2L402.814 410.405L417.716 398.775C418.176 398.411 418.548 397.947 418.804 397.419C419.06 396.89 419.193 396.311 419.193 395.724C419.193 395.136 419.06 394.557 418.804 394.028C418.548 393.5 418.176 393.036 417.716 392.672Z" fill="#B6B6B6"/>
<path d="M586.545 210.828H583.042L578.009 203.739C577.814 203.462 577.554 203.236 577.253 203.08C576.952 202.925 576.617 202.845 576.278 202.848H556.196C555.857 202.845 555.522 202.925 555.221 203.08C554.919 203.236 554.66 203.462 554.465 203.739L549.432 210.828H545.929C543.304 210.837 540.789 211.884 538.934 213.741C537.079 215.598 536.035 218.114 536.029 220.738V249.525C536.035 252.15 537.079 254.666 538.934 256.523C540.789 258.38 543.304 259.427 545.929 259.435H586.545C589.171 259.427 591.687 258.38 593.543 256.523C595.4 254.667 596.447 252.151 596.455 249.525V220.707C596.438 218.087 595.388 215.579 593.532 213.729C591.676 211.879 589.165 210.836 586.545 210.828ZM566.242 249.473C563.352 249.475 560.527 248.62 558.123 247.016C555.72 245.412 553.846 243.131 552.738 240.462C551.631 237.793 551.34 234.855 551.903 232.021C552.465 229.186 553.856 226.582 555.898 224.538C557.941 222.494 560.544 221.102 563.378 220.537C566.212 219.973 569.15 220.262 571.82 221.367C574.49 222.472 576.772 224.345 578.377 226.747C579.983 229.15 580.84 231.975 580.84 234.864C580.84 238.737 579.302 242.451 576.565 245.19C573.828 247.93 570.115 249.47 566.242 249.473Z" fill="#B6B6B6"/>
<path d="M566.242 244.512C571.571 244.512 575.89 240.193 575.89 234.864C575.89 229.536 571.571 225.216 566.242 225.216C560.914 225.216 556.594 229.536 556.594 234.864C556.594 240.193 560.914 244.512 566.242 244.512Z" fill="#B6B6B6"/>
</g>
</svg>
